<svg width="34" height="34" viewBox="0 0 34 34" fill="none" xmlns="http://www.w3.org/2000/svg">
<g clip-path="url(#clip0_725_4023)">
<path d="M13.6963 24.6585C13.5501 24.6602 13.408 24.61 13.2953 24.5169L9.28334 21.1013C9.21516 21.043 9.16042 20.9707 9.12289 20.8892C9.08535 20.8078 9.06592 20.7192 9.06592 20.6295C9.06592 20.5398 9.08535 20.4512 9.12289 20.3698C9.16042 20.2883 9.21516 20.216 9.28334 20.1578L13.2953 16.7422C13.4205 16.6357 13.5828 16.5832 13.7466 16.5963C13.9103 16.6095 14.0622 16.6872 14.1687 16.8123C14.2752 16.9374 14.3277 17.0997 14.3145 17.2635C14.3014 17.4273 14.2237 17.5792 14.0986 17.6857L10.6419 20.6295L14.0986 23.5734C14.195 23.6557 14.2639 23.7656 14.2959 23.8883C14.3279 24.011 14.3216 24.1406 14.2778 24.2596C14.2339 24.3786 14.1547 24.4813 14.0507 24.5539C13.9468 24.6265 13.8231 24.6654 13.6963 24.6656V24.6585Z" fill="#E7E7E7"/>
<path d="M20.3039 24.657C20.1771 24.6569 20.0533 24.6179 19.9494 24.5453C19.8454 24.4727 19.7662 24.37 19.7224 24.251C19.6785 24.132 19.6722 24.0025 19.7042 23.8798C19.7363 23.7571 19.8051 23.6472 19.9015 23.5648L23.3582 20.621L19.9015 17.6771C19.8396 17.6244 19.7886 17.56 19.7516 17.4875C19.7145 17.4151 19.6921 17.3361 19.6856 17.255C19.6791 17.1739 19.6886 17.0923 19.7136 17.0149C19.7386 16.9374 19.7786 16.8657 19.8314 16.8038C19.8841 16.7418 19.9486 16.6908 20.021 16.6538C20.0934 16.6167 20.1725 16.5943 20.2536 16.5878C20.3347 16.5813 20.4163 16.5908 20.4937 16.6158C20.5711 16.6409 20.6428 16.6809 20.7048 16.7336L24.7168 20.1492C24.7849 20.2075 24.8397 20.2798 24.8772 20.3612C24.9148 20.4427 24.9342 20.5313 24.9342 20.621C24.9342 20.7106 24.9148 20.7993 24.8772 20.8807C24.8397 20.9621 24.7849 21.0345 24.7168 21.0927L20.7048 24.5083C20.5932 24.6041 20.451 24.6569 20.3039 24.657Z" fill="#E7E7E7"/>
<path d="M15.5974 27.2525C15.5541 27.2526 15.5109 27.2484 15.4685 27.2397C15.3078 27.2057 15.1672 27.1093 15.0774 26.9717C14.9876 26.8342 14.9561 26.6667 14.9897 26.5059L17.4901 14.6356C17.5311 14.4822 17.6293 14.3504 17.7646 14.2673C17.8999 14.1842 18.0618 14.156 18.2172 14.1887C18.3726 14.2214 18.5095 14.3124 18.5998 14.4429C18.6901 14.5735 18.727 14.7337 18.7027 14.8906L16.2023 26.7609C16.1729 26.8996 16.0968 27.0241 15.9867 27.1135C15.8766 27.203 15.7392 27.252 15.5974 27.2525Z" fill="#E7E7E7"/>
<path d="M30.2315 34H3.76814C2.70408 33.9279 1.71146 33.4388 1.00589 32.6391C0.300314 31.8393 -0.0612245 30.7935 -0.000195511 29.7288V4.27125C-0.0612245 3.2065 0.300314 2.16067 1.00589 1.36093C1.71146 0.561192 2.70408 0.0721385 3.76814 0L30.2315 0C31.2955 0.0721385 32.2881 0.561192 32.9937 1.36093C33.6993 2.16067 34.0608 3.2065 33.9998 4.27125V29.7288C34.0608 30.7935 33.6993 31.8393 32.9937 32.6391C32.2881 33.4388 31.2955 33.9279 30.2315 34ZM3.76814 1.275C3.02149 1.32565 2.32492 1.66863 1.82951 2.22954C1.33411 2.79045 1.07982 3.52406 1.1218 4.27125V29.7288C1.07982 30.4759 1.33411 31.2095 1.82951 31.7705C2.32492 32.3314 3.02149 32.6743 3.76814 32.725H30.2315C30.9786 32.6744 31.6757 32.331 32.1711 31.7694C32.6666 31.2079 32.9206 30.4736 32.8778 29.7259V4.27125C32.9198 3.52406 32.6655 2.79045 32.1701 2.22954C31.6747 1.66863 30.9781 1.32565 30.2315 1.275H3.76814Z" fill="#E7E7E7"/>
<path d="M33.4334 10.1632H0.566746C0.41379 10.1468 0.272291 10.0744 0.16947 9.96003C0.0666477 9.84561 0.00976563 9.69721 0.00976562 9.54338C0.00976562 9.38955 0.0666477 9.24115 0.16947 9.12674C0.272291 9.01232 0.41379 8.93996 0.566746 8.92358H33.4334C33.5864 8.93996 33.7279 9.01232 33.8307 9.12674C33.9335 9.24115 33.9904 9.38955 33.9904 9.54338C33.9904 9.69721 33.9335 9.84561 33.8307 9.96003C33.7279 10.0744 33.5864 10.1468 33.4334 10.1632Z" fill="#E7E7E7"/>
<path d="M9.67986 6.96005C9.2918 6.96005 8.91245 6.84498 8.58979 6.62938C8.26713 6.41379 8.01564 6.10735 7.86713 5.74883C7.71863 5.39031 7.67977 4.9958 7.75547 4.61519C7.83118 4.23458 8.01806 3.88497 8.29246 3.61057C8.56686 3.33617 8.91647 3.1493 9.29707 3.07359C9.67768 2.99788 10.0722 3.03674 10.4307 3.18525C10.7892 3.33375 11.0957 3.58523 11.3113 3.90789C11.5269 4.23056 11.6419 4.60991 11.6419 4.99797C11.6412 5.51812 11.4342 6.01675 11.0664 6.38455C10.6986 6.75235 10.2 6.9593 9.67986 6.96005ZM9.67986 4.27689C9.53696 4.27689 9.39728 4.31926 9.27846 4.39865C9.15965 4.47804 9.06705 4.59088 9.01236 4.7229C8.95768 4.85492 8.94337 5.00019 8.97125 5.14034C8.99912 5.28049 9.06793 5.40923 9.16897 5.51027C9.27002 5.61132 9.39876 5.68013 9.53891 5.70801C9.67906 5.73589 9.82433 5.72158 9.95635 5.66689C10.0884 5.61221 10.2012 5.5196 10.2806 5.40079C10.36 5.28197 10.4024 5.14228 10.4024 4.99939C10.4025 4.90439 10.384 4.81028 10.3478 4.72246C10.3115 4.63464 10.2584 4.55483 10.1912 4.48759C10.1241 4.42035 10.0444 4.367 9.95667 4.3306C9.86892 4.2942 9.77486 4.27689 9.67986 4.27689Z" fill="#E7E7E7"/>
<path d="M4.56462 6.94163C4.17656 6.94163 3.79721 6.82655 3.47455 6.61095C3.15189 6.39535 2.9004 6.08892 2.75189 5.7304C2.60339 5.37187 2.56453 4.97736 2.64024 4.59676C2.71595 4.21615 2.90282 3.86654 3.17722 3.59214C3.45162 3.31773 3.80123 3.13086 4.18184 3.05516C4.56245 2.97945 4.95696 3.01831 5.31548 3.16681C5.67401 3.31532 5.98044 3.5668 6.19604 3.88947C6.41163 4.21213 6.52671 4.59148 6.52671 4.97954C6.52633 5.4998 6.31949 5.99865 5.95161 6.36653C5.58373 6.73441 5.08488 6.94125 4.56462 6.94163ZM4.56462 4.25846C4.42173 4.25846 4.28204 4.30083 4.16322 4.38022C4.04441 4.45961 3.9518 4.57245 3.89712 4.70447C3.84244 4.83649 3.82813 4.98176 3.85601 5.12191C3.88388 5.26206 3.95269 5.3908 4.05374 5.49184C4.15478 5.59289 4.28352 5.6617 4.42367 5.68957C4.56382 5.71745 4.70909 5.70314 4.84111 5.64846C4.97313 5.59378 5.08597 5.50117 5.16536 5.38235C5.24475 5.26354 5.28712 5.12385 5.28712 4.98095C5.28731 4.88596 5.26876 4.79185 5.23253 4.70403C5.19631 4.61621 5.14312 4.53639 5.07601 4.46915C5.0089 4.40191 4.92919 4.34857 4.84144 4.31217C4.75369 4.27577 4.65962 4.25846 4.56462 4.25846Z" fill="#E7E7E7"/>
<path d="M15.0719 6.97849C14.6839 6.97849 14.3045 6.86341 13.9819 6.64782C13.6592 6.43222 13.4077 6.12579 13.2592 5.76726C13.1107 5.40874 13.0719 5.01423 13.1476 4.63362C13.2233 4.25302 13.4101 3.9034 13.6845 3.629C13.9589 3.3546 14.3086 3.16773 14.6892 3.09202C15.0698 3.01632 15.4643 3.05517 15.8228 3.20367C16.1813 3.35218 16.4878 3.60367 16.7034 3.92633C16.919 4.24899 17.034 4.62834 17.034 5.01641C17.0337 5.53667 16.8268 6.03551 16.4589 6.40339C16.091 6.77127 15.5922 6.97811 15.0719 6.97849ZM15.0719 4.29532C14.929 4.29532 14.7894 4.3377 14.6705 4.41708C14.5517 4.49647 14.4591 4.60931 14.4044 4.74133C14.3498 4.87335 14.3355 5.01862 14.3633 5.15877C14.3912 5.29892 14.46 5.42767 14.5611 5.52871C14.6621 5.62975 14.7909 5.69856 14.931 5.72644C15.0712 5.75432 15.2164 5.74001 15.3484 5.68533C15.4805 5.63064 15.5933 5.53803 15.6727 5.41922C15.7521 5.30041 15.7945 5.16072 15.7945 5.01782C15.7945 4.8262 15.7183 4.64243 15.5828 4.50693C15.4473 4.37144 15.2636 4.29532 15.0719 4.29532Z" fill="#E7E7E7"/>
</g>
<defs>
<clipPath id="clip0_725_4023">
<rect width="34" height="34" fill="white"/>
</clipPath>
</defs>
</svg>
