<svg width="34" height="34" viewBox="0 0 34 34" fill="none" xmlns="http://www.w3.org/2000/svg">
<g clip-path="url(#clip0_754_78)">
<path d="M9.84979 5.74031L9.80816 5.69639L9.76021 5.64539L9.72236 5.60856L9.66559 5.55473L9.63026 5.52356L9.56844 5.46972L9.53058 5.43998L9.46876 5.39181L9.43722 5.36914L9.36531 5.31814L9.34764 5.30823L9.25933 5.25156H9.24671L9.15082 5.19773H9.13946L9.03979 5.14815H9.03222C8.9603 5.11556 8.88712 5.08439 8.81142 5.06031L8.78745 5.05323L8.69283 5.02348L8.57675 4.99373H8.54773L8.45689 4.97673H8.41021L8.33577 4.96539H8.26006H8.21212H8.08595C7.42416 4.96652 6.78978 5.2623 6.32194 5.78787C5.8541 6.31344 5.591 7.0259 5.59033 7.76898V9.53272C5.59033 9.69992 5.64948 9.86027 5.75478 9.9785C5.86007 10.0967 6.00288 10.1631 6.15178 10.1631H10.0189C10.1678 10.1631 10.3106 10.0967 10.4159 9.9785C10.5212 9.86027 10.5803 9.69992 10.5803 9.53272V7.72223C10.5817 7.35377 10.5178 6.98868 10.3924 6.64819C10.267 6.3077 10.0826 6.00003 9.84979 5.74031ZM9.45993 8.90231H6.70945V7.72223C6.70945 7.31287 6.85428 6.92029 7.11207 6.63083C7.36985 6.34138 7.71949 6.17877 8.08406 6.17877C8.44863 6.17877 8.79826 6.34138 9.05605 6.63083C9.31384 6.92029 9.45867 7.31287 9.45867 7.72223L9.45993 8.90231Z" fill="#E7E7E7"/>
<path d="M22.5161 4.91864C21.8543 4.91977 21.22 5.21554 20.7521 5.74111C20.2843 6.26669 20.0212 6.97914 20.0205 7.72222V9.53272C20.0205 9.61551 20.035 9.69748 20.0632 9.77397C20.0915 9.85046 20.1328 9.91996 20.185 9.9785C20.2371 10.037 20.299 10.0835 20.3671 10.1152C20.4352 10.1468 20.5082 10.1631 20.582 10.1631H24.4516C24.5253 10.1631 24.5983 10.1468 24.6664 10.1152C24.7345 10.0835 24.7964 10.037 24.8486 9.9785C24.9007 9.91996 24.9421 9.85046 24.9703 9.77397C24.9985 9.69748 25.013 9.61551 25.013 9.53272V7.72222C25.0127 6.97916 24.7496 6.26663 24.2817 5.74121C23.8137 5.21578 23.1792 4.92043 22.5174 4.92006L22.5161 4.91864ZM23.8901 8.90231H21.1409V7.72222C21.1409 7.31306 21.2856 6.92065 21.5433 6.63133C21.801 6.34201 22.1505 6.17947 22.5149 6.17947C22.8793 6.17947 23.2287 6.34201 23.4864 6.63133C23.7441 6.92065 23.8888 7.31306 23.8888 7.72222L23.8901 8.90231Z" fill="#E7E7E7"/>
<path d="M19.4198 12.3718H11.1343C10.9802 12.366 10.8304 12.4292 10.7178 12.5474C10.6052 12.6656 10.539 12.8292 10.5337 13.0022C10.619 14.3493 11.1558 15.61 12.036 16.5305C12.9161 17.451 14.0742 17.9627 15.277 17.9627C16.4798 17.9627 17.6379 17.451 18.518 16.5305C19.3982 15.61 19.935 14.3493 20.0203 13.0022C20.0151 12.8292 19.9489 12.6656 19.8362 12.5474C19.7236 12.4292 19.5738 12.366 19.4198 12.3718ZM17.7796 15.6301C17.3047 16.1168 16.7255 16.4569 16.0986 16.6173C15.4717 16.7777 14.8185 16.7529 14.2027 16.5453C13.5993 16.3578 13.054 15.9865 12.6271 15.4724C12.2002 14.9583 11.9084 14.3215 11.784 13.6326H18.7687C18.6405 14.4001 18.2943 15.1004 17.7821 15.6287L17.7796 15.6301Z" fill="#E7E7E7"/>
<path d="M26.1765 29.3094H22.0344C21.9676 28.3568 21.5762 27.4698 20.9417 26.8331C20.3071 26.1963 19.4783 25.8589 18.6278 25.891C17.7773 26.0356 17.0049 26.5301 16.461 27.2783C15.917 28.0266 15.6401 28.9752 15.6843 29.9398C15.6401 30.9045 15.917 31.8531 16.461 32.6013C17.0049 33.3496 17.7773 33.8441 18.6278 33.9887C19.4784 34.0211 20.3074 33.6838 20.942 33.047C21.5766 32.4102 21.9679 31.523 22.0344 30.5703H26.1765C29.4947 30.5703 32.1846 27.1448 32.1872 22.9203V16.8201C32.9468 16.0122 33.4986 14.9896 33.7848 13.8597C34.071 12.7297 34.0809 11.5341 33.8135 10.3983C33.6065 9.2992 33.1092 8.29567 32.3865 7.51879C31.6637 6.7419 30.7492 6.22776 29.7622 6.0435V3.89017C29.8127 2.9203 29.5199 1.96729 28.9476 1.23868C28.3752 0.510063 27.5697 0.0648551 26.7064 0H3.05855C2.19479 0.0641409 1.38861 0.509041 0.815734 1.23773C0.242857 1.96643 -0.0502768 2.91984 0.000219895 3.89017V20.2456C-0.0502768 21.2159 0.242857 22.1693 0.815734 22.898C1.38861 23.6267 2.19479 24.0716 3.05855 24.1358H4.10071V31.2432C4.09811 31.3597 4.12403 31.4748 4.17564 31.576C4.22725 31.6771 4.30257 31.7605 4.39342 31.8169C4.48032 31.8665 4.5792 31.8831 4.6752 31.8642C4.7712 31.8453 4.85916 31.7919 4.92585 31.7121L11.6128 24.1343H26.7064C27.5702 24.0702 28.3763 23.6253 28.9492 22.8966C29.5221 22.1679 29.8152 21.2145 29.7647 20.2442V18.0908C30.265 18.0187 30.7501 17.8485 31.198 17.5879V22.9217C31.279 24.5142 30.797 26.0784 29.8567 27.2742C28.9165 28.47 27.5939 29.2023 26.1765 29.3094ZM18.8789 32.7406C18.2568 32.6947 17.6762 32.3745 17.2635 31.8498C16.8509 31.3252 16.6397 30.6386 16.676 29.9398C16.6397 29.2411 16.8509 28.5545 17.2635 28.0299C17.6762 27.5052 18.2568 27.185 18.8789 27.1391C19.5009 27.185 20.0816 27.5052 20.4942 28.0299C20.9069 28.5545 21.1181 29.2411 21.0818 29.9398C21.1174 30.6382 20.9062 31.3241 20.4939 31.8486C20.0816 32.373 19.5005 32.6936 18.8789 32.7406ZM28.773 20.2456C28.8063 20.9013 28.6077 21.5453 28.2205 22.0376C27.8333 22.5299 27.2888 22.8308 26.7051 22.8749H11.4299C11.3683 22.8755 11.3075 22.8898 11.251 22.917C11.1944 22.9443 11.1433 22.9839 11.1006 23.0336L5.09114 29.8336V23.5053C5.09944 23.3482 5.05212 23.1938 4.95948 23.0758C4.86684 22.9577 4.73639 22.8855 4.59655 22.8749H3.05855C2.47492 22.8308 1.93036 22.5299 1.54317 22.0376C1.15597 21.5453 0.95742 20.9013 0.990646 20.2456V3.89017C0.957075 3.23419 1.15547 2.58985 1.5427 2.09722C1.92993 1.60459 2.47469 1.30351 3.05855 1.25942H26.7064C27.29 1.30351 27.8346 1.6044 28.2218 2.09672C28.609 2.58903 28.8075 3.23301 28.7743 3.88875L28.773 20.2456ZM29.7635 7.31283C30.7165 7.54902 31.5647 8.15551 32.1584 9.02533C32.7521 9.89515 33.0532 10.9724 33.0085 12.0672C33.0534 13.162 32.7524 14.2394 32.1587 15.1093C31.565 15.9791 30.7166 16.5856 29.7635 16.8215V7.31283Z" fill="#E7E7E7"/>
</g>
<defs>
<clipPath id="clip0_754_78">
<rect width="34" height="34" fill="white"/>
</clipPath>
</defs>
</svg>
