<svg width="35" height="34" viewBox="0 0 35 34" fill="none" xmlns="http://www.w3.org/2000/svg">
<g clip-path="url(#clip0_754_14)">
<path d="M11.3975 22.5371H29.1316C29.3441 22.5371 29.5507 22.4585 29.7204 22.3133C29.89 22.1681 30.0133 21.9641 30.0718 21.7322L33.9839 6.19909C34.0248 6.03413 34.0316 5.86065 34.0036 5.69224C33.9756 5.52382 33.9137 5.36504 33.8226 5.22834C33.7316 5.09164 33.6139 4.98073 33.4787 4.90429C33.3436 4.82785 33.1947 4.78796 33.0437 4.78774H9.13947L8.44017 1.21566C8.39179 0.969179 8.27082 0.748789 8.09724 0.590854C7.92366 0.432919 7.70783 0.346876 7.48537 0.346924H1.61719C1.3578 0.346924 1.10903 0.463891 0.925619 0.672095C0.742202 0.880299 0.63916 1.16268 0.63916 1.45713C0.63916 1.75157 0.742202 2.03396 0.925619 2.24216C1.10903 2.45036 1.3578 2.56733 1.61719 2.56733H6.7005L10.2312 20.5915C9.61379 20.897 9.10778 21.4344 8.79814 22.1134C8.4885 22.7924 8.39407 23.5716 8.53071 24.3202C8.66734 25.0689 9.02673 25.7414 9.54852 26.2248C10.0703 26.7083 10.7227 26.9732 11.3963 26.9752H29.1316C29.391 26.9752 29.6398 26.8582 29.8232 26.65C30.0066 26.4418 30.1097 26.1594 30.1097 25.865C30.1097 25.5705 30.0066 25.2881 29.8232 25.0799C29.6398 24.8717 29.391 24.7548 29.1316 24.7548H11.3975C11.1381 24.7548 10.8893 24.6378 10.7059 24.4296C10.5225 24.2214 10.4195 23.939 10.4195 23.6446C10.4195 23.3501 10.5225 23.0677 10.7059 22.8595C10.8893 22.6513 11.1381 22.5344 11.3975 22.5344V22.5371ZM31.7479 7.00815L28.3908 20.3181H12.1811L9.57347 7.00815H31.7479Z" fill="#E7E7E7"/>
<path d="M10.4136 30.3127C10.4136 30.9731 10.5861 31.6186 10.9093 32.1677C11.2325 32.7168 11.6919 33.1447 12.2294 33.3975C12.7668 33.6502 13.3583 33.7163 13.9288 33.5875C14.4994 33.4587 15.0235 33.1406 15.4349 32.6737C15.8463 32.2067 16.1264 31.6118 16.2399 30.9641C16.3534 30.3164 16.2952 29.645 16.0725 29.0349C15.8499 28.4248 15.4729 27.9034 14.9892 27.5365C14.5055 27.1696 13.9368 26.9738 13.355 26.9738C12.5752 26.9749 11.8276 27.327 11.2762 27.9529C10.7248 28.5788 10.4145 29.4275 10.4136 30.3127ZM13.355 29.2025C13.5484 29.2025 13.7375 29.2676 13.8984 29.3896C14.0592 29.5116 14.1846 29.685 14.2586 29.8878C14.3326 30.0907 14.352 30.3139 14.3142 30.5293C14.2765 30.7446 14.1833 30.9425 14.0466 31.0977C13.9098 31.253 13.7355 31.3587 13.5458 31.4016C13.3561 31.4444 13.1594 31.4224 12.9807 31.3384C12.802 31.2544 12.6493 31.1121 12.5418 30.9295C12.4343 30.7469 12.377 30.5323 12.377 30.3127C12.376 30.1662 12.4006 30.021 12.4493 29.8853C12.498 29.7496 12.5699 29.6262 12.6608 29.5223C12.7517 29.4183 12.8599 29.3358 12.979 29.2795C13.0982 29.2232 13.226 29.1942 13.355 29.1942V29.2025Z" fill="#E7E7E7"/>
<path d="M24.2158 30.3127C24.2158 30.9731 24.3883 31.6186 24.7115 32.1677C25.0348 32.7168 25.4941 33.1447 26.0316 33.3975C26.5691 33.6502 27.1605 33.7163 27.7311 33.5875C28.3017 33.4587 28.8258 33.1406 29.2371 32.6737C29.6485 32.2067 29.9287 31.6118 30.0422 30.9641C30.1557 30.3164 30.0974 29.645 29.8748 29.0349C29.6521 28.4248 29.2751 27.9034 28.7914 27.5365C28.3077 27.1696 27.739 26.9738 27.1573 26.9738C26.3774 26.9749 25.6298 27.327 25.0784 27.9529C24.527 28.5788 24.2168 29.4275 24.2158 30.3127ZM27.1573 29.2025C27.3507 29.2025 27.5398 29.2676 27.7006 29.3896C27.8615 29.5116 27.9868 29.685 28.0608 29.8878C28.1349 30.0907 28.1542 30.3139 28.1165 30.5293C28.0788 30.7446 27.9856 30.9425 27.8488 31.0977C27.712 31.253 27.5378 31.3587 27.3481 31.4016C27.1583 31.4444 26.9617 31.4224 26.783 31.3384C26.6043 31.2544 26.4515 31.1121 26.344 30.9295C26.2366 30.7469 26.1792 30.5323 26.1792 30.3127C26.1782 30.1662 26.2028 30.021 26.2515 29.8853C26.3003 29.7496 26.3722 29.6262 26.4631 29.5223C26.554 29.4183 26.6621 29.3358 26.7813 29.2795C26.9004 29.2232 27.0282 29.1942 27.1573 29.1942V29.2025Z" fill="#E7E7E7"/>
</g>
<defs>
<clipPath id="clip0_754_14">
<rect width="34" height="34" fill="white" transform="translate(0.333496)"/>
</clipPath>
</defs>
</svg>
