<svg width="35" height="34" viewBox="0 0 35 34" fill="none" xmlns="http://www.w3.org/2000/svg">
<g clip-path="url(#clip0_754_25)">
<path d="M14.4861 13.3733L15.6761 14.0816C15.805 14.159 15.9593 14.1821 16.1052 14.1457C16.251 14.1093 16.3764 14.0164 16.4538 13.8876C16.5312 13.7587 16.5543 13.6043 16.5179 13.4585C16.4815 13.3126 16.3886 13.1872 16.2598 13.1098L15.2086 12.478C15.7144 11.616 15.9764 10.6327 15.9665 9.6333C15.9665 7.1343 14.4422 5.09998 12.5665 5.09998C10.6908 5.09998 9.1665 7.1343 9.1665 9.6333C9.1665 12.1323 10.6908 14.1666 12.5665 14.1666C13.2837 14.1547 13.9697 13.8712 14.4861 13.3733ZM10.2998 9.6333C10.2998 7.79164 11.3383 6.23331 12.5665 6.23331C13.7948 6.23331 14.8332 7.79164 14.8332 9.6333C14.8419 10.4288 14.6359 11.2118 14.2368 11.9L13.4264 11.4141C13.2976 11.3367 13.1432 11.3136 12.9973 11.35C12.8515 11.3864 12.7261 11.4793 12.6487 11.6081C12.5713 11.737 12.5482 11.8914 12.5846 12.0372C12.621 12.1831 12.7139 12.3085 12.8428 12.3859L13.4533 12.7514C13.1928 12.9314 12.8846 13.03 12.5679 13.0347C11.3397 13.0347 10.3013 11.4764 10.3013 9.63472L10.2998 9.6333Z" fill="#E7E7E7"/>
<path d="M23.3007 19.0754C23.2613 18.9655 23.1889 18.8705 23.0934 18.8033C22.998 18.7361 22.8841 18.7001 22.7673 18.7001C22.6506 18.7001 22.5367 18.7361 22.4412 18.8033C22.3458 18.8705 22.2734 18.9655 22.234 19.0754L19.4006 27.0087C19.3756 27.0789 19.3647 27.1532 19.3684 27.2276C19.3721 27.302 19.3904 27.3749 19.4223 27.4422C19.4542 27.5095 19.4991 27.5698 19.5543 27.6198C19.6095 27.6697 19.674 27.7083 19.7442 27.7334C19.8143 27.7584 19.8887 27.7693 19.9631 27.7656C20.0374 27.7619 20.1103 27.7436 20.1776 27.7117C20.2449 27.6798 20.3053 27.6349 20.3552 27.5797C20.4052 27.5245 20.4438 27.46 20.4688 27.3898L21.3471 24.9333H24.1861L25.0645 27.3898C25.0895 27.46 25.1281 27.5245 25.178 27.5797C25.228 27.6349 25.2883 27.6798 25.3556 27.7117C25.4229 27.7436 25.4958 27.7619 25.5702 27.7656C25.6446 27.7693 25.7189 27.7584 25.7891 27.7334C25.8592 27.7083 25.9237 27.6697 25.979 27.6198C26.0342 27.5698 26.0791 27.5095 26.111 27.4422C26.1429 27.3749 26.1612 27.302 26.1649 27.2276C26.1686 27.1532 26.1576 27.0789 26.1326 27.0087L23.3007 19.0754ZM21.7495 23.8042L22.7666 20.9553L23.7866 23.8042H21.7495Z" fill="#E7E7E7"/>
<path d="M32.4151 28.0698C33.859 26.4153 34.6587 24.296 34.6676 22.1C34.6676 16.9575 30.1541 12.6367 24.2792 11.9977C24.404 11.4066 24.4671 10.8042 24.4676 10.2C24.4676 4.57583 19.1282 0 12.5676 0C6.00704 0 0.667622 4.57583 0.667622 10.2C0.676654 12.2192 1.35749 14.178 2.60279 15.7675L0.703039 20.7655C0.663676 20.8697 0.655921 20.9833 0.680743 21.0919C0.705565 21.2005 0.761863 21.2994 0.842597 21.3762C0.92333 21.453 1.02491 21.5043 1.13465 21.5237C1.24438 21.5431 1.35739 21.5297 1.45954 21.4852L6.81312 19.125C8.15023 19.7531 9.58459 20.1488 11.0546 20.2952C10.9299 20.8887 10.8672 21.4935 10.8676 22.1C10.8676 27.7242 16.2056 32.3 22.7676 32.3C24.5847 32.3044 26.384 31.9436 28.0589 31.2389L33.8672 33.9476C33.9712 33.9962 34.0876 34.0121 34.2008 33.9931C34.3141 33.9741 34.4189 33.9212 34.5013 33.8413C34.5838 33.7614 34.6401 33.6584 34.6627 33.5458C34.6853 33.4332 34.6732 33.3164 34.628 33.2109L32.4151 28.0698ZM6.59921 17.9917L2.24296 19.9042L3.77296 15.8667C3.80965 15.7727 3.8206 15.6706 3.80466 15.571C3.78872 15.4714 3.74648 15.3778 3.68229 15.3C2.48059 13.8709 1.81523 12.0672 1.80096 10.2C1.80096 5.20058 6.62896 1.13333 12.5676 1.13333C18.5063 1.13333 23.3343 5.20058 23.3343 10.2C23.3342 10.9241 23.2307 11.6444 23.0269 12.3392C21.861 16.4192 17.5571 19.2667 12.5676 19.2667C12.3126 19.2667 12.0605 19.2667 11.7955 19.2397C10.1561 19.1548 8.55176 18.7334 7.08229 18.0016C7.00787 17.9642 6.92613 17.9437 6.84288 17.9415C6.75963 17.9393 6.67691 17.9554 6.60062 17.9888L6.59921 17.9917ZM28.3054 30.107C28.2312 30.0729 28.1505 30.0553 28.0688 30.0553C27.9871 30.0553 27.9064 30.0729 27.8322 30.107C26.2375 30.813 24.5116 31.1741 22.7676 31.1667C16.829 31.1667 12.001 27.0994 12.001 22.1C12.0017 21.5278 12.0668 20.9576 12.195 20.4C12.3197 20.4 12.443 20.4 12.5676 20.4C12.9057 20.4 13.2405 20.3877 13.572 20.3632C13.6854 20.3547 13.793 20.3391 13.905 20.3277C14.1231 20.3065 14.3399 20.2881 14.5552 20.2569C14.687 20.2371 14.8159 20.2102 14.9462 20.1875C15.136 20.1549 15.3273 20.1237 15.5129 20.0827C15.6545 20.0529 15.7863 20.0147 15.9223 19.9807C16.0965 19.9368 16.2708 19.8957 16.4422 19.839C16.5839 19.7979 16.717 19.7498 16.8545 19.6973C17.0174 19.6435 17.1803 19.5925 17.3404 19.533C17.482 19.482 17.6124 19.4225 17.747 19.3672C17.8815 19.312 18.053 19.2426 18.2003 19.1746C18.3476 19.1066 18.4652 19.0428 18.597 18.9777C18.7287 18.9125 18.8803 18.836 19.022 18.7595C19.1636 18.683 19.2784 18.6093 19.4059 18.5328C19.5334 18.4563 19.6722 18.3742 19.8025 18.2892C19.9329 18.2042 20.0476 18.1192 20.1695 18.0342C20.2913 17.9492 20.416 17.8585 20.535 17.7678C20.654 17.6772 20.7659 17.5808 20.8806 17.4845C20.9954 17.3882 21.1073 17.2947 21.2178 17.2012C21.3283 17.1077 21.4331 16.9972 21.538 16.8937C21.6428 16.7903 21.7462 16.6883 21.8454 16.5821C21.9445 16.4758 22.0423 16.3639 22.1386 16.252C22.235 16.1401 22.3256 16.0324 22.422 15.9191C22.5183 15.8057 22.599 15.6868 22.684 15.5677C22.769 15.4488 22.854 15.3326 22.9305 15.2136C23.007 15.0946 23.0864 14.9699 23.1572 14.8453C23.228 14.7206 23.2989 14.5959 23.3711 14.467C23.4434 14.3381 23.5029 14.2134 23.5638 14.0845C23.6247 13.9556 23.687 13.8182 23.7451 13.6822C23.8032 13.5462 23.8514 13.4201 23.901 13.2855C23.9265 13.2175 23.9576 13.1523 23.9803 13.0843C29.3792 13.5943 33.5414 17.476 33.5414 22.0943C33.5275 24.1344 32.742 26.0937 31.3427 27.5782C31.2694 27.6587 31.2209 27.7584 31.2028 27.8657C31.1847 27.973 31.1979 28.0832 31.2407 28.1832L33.0016 32.2915L28.3054 30.107Z" fill="#E7E7E7"/>
</g>
<defs>
<clipPath id="clip0_754_25">
<rect width="34" height="34" fill="white" transform="translate(0.666504)"/>
</clipPath>
</defs>
</svg>
