<svg width="34" height="34" viewBox="0 0 34 34" fill="none" xmlns="http://www.w3.org/2000/svg">
<g clip-path="url(#clip0_754_40)">
<path d="M12.9724 0C12.328 0.000456642 11.6968 0.216138 11.1511 0.622309C10.6053 1.02848 10.1673 1.6087 9.88707 2.29642C9.84404 2.29642 9.8022 2.28933 9.75797 2.28933C9.74721 2.28933 9.73884 2.28933 9.72808 2.28933C9.26576 2.27758 8.80613 2.37579 8.37638 2.57816C7.94663 2.78053 7.55548 3.08295 7.22605 3.46755C6.89662 3.85214 6.63559 4.3111 6.4584 4.8173C6.28121 5.3235 6.19145 5.86666 6.19444 6.41467C5.91798 6.33368 5.63404 6.29418 5.34928 6.29708C4.78101 6.30501 4.22302 6.47757 3.72395 6.79974C3.22489 7.1219 2.79991 7.58387 2.48609 8.14536C2.17227 8.70685 1.97913 9.3508 1.92353 10.0211C1.86793 10.6913 1.95154 11.3675 2.16708 11.9907C1.49646 12.5619 0.95017 13.314 0.57335 14.185C0.19653 15.0559 0 16.0206 0 16.9993C0 17.978 0.19653 18.9427 0.57335 19.8136C0.95017 20.6845 1.49646 21.4367 2.16708 22.0079C1.95109 22.6313 1.86712 23.3079 1.92249 23.9786C1.97786 24.6493 2.17089 25.2937 2.48474 25.8557C2.79859 26.4176 3.22372 26.88 3.72304 27.2025C4.22235 27.525 4.78067 27.6978 5.34928 27.7057C5.63428 27.7061 5.91821 27.6643 6.19444 27.5811C6.19324 28.1282 6.28425 28.67 6.46214 29.1749C6.64004 29.6797 6.90122 30.1374 7.23037 30.521C7.55952 30.9046 7.95001 31.2064 8.37892 31.4088C8.80783 31.6111 9.26652 31.7099 9.72808 31.6993C9.73884 31.6993 9.74721 31.7064 9.75797 31.7064C9.801 31.7064 9.84404 31.7064 9.88707 31.6993C10.1674 32.387 10.6055 32.9671 11.1512 33.3732C11.6969 33.7794 12.3281 33.9951 12.9724 33.9958C13.8904 33.9886 14.7685 33.5503 15.4142 32.777C16.0598 32.0036 16.4202 30.9583 16.4164 29.8704V4.12533C16.4202 3.03744 16.0598 1.99217 15.4142 1.2188C14.7685 0.445434 13.8904 0.00711822 12.9724 0ZM12.9724 32.6145C12.5978 32.6132 12.2293 32.5013 11.9004 32.2888C11.5714 32.0764 11.2924 31.77 11.0885 31.3976C11.7248 31.0852 12.2688 30.5563 12.6518 29.8779C13.0347 29.1994 13.2395 28.4016 13.2402 27.5853C13.2402 27.4016 13.1786 27.2254 13.069 27.0955C12.9594 26.9656 12.8107 26.8926 12.6557 26.8926C12.5006 26.8926 12.3519 26.9656 12.2423 27.0955C12.1327 27.2254 12.0711 27.4016 12.0711 27.5853C12.0698 28.204 11.8919 28.8039 11.5664 29.2875C11.2408 29.7711 10.7867 30.1098 10.278 30.2487C10.2684 30.2487 10.26 30.2487 10.2505 30.2487C10.2075 30.2489 10.1646 30.2546 10.1226 30.2657C9.78749 30.3498 9.44075 30.3435 9.10798 30.2474C8.7752 30.1514 8.46491 29.9679 8.20002 29.7105C7.93514 29.4532 7.72245 29.1286 7.57766 28.7608C7.43288 28.3929 7.3597 27.9912 7.36355 27.5853C7.3643 27.2685 7.4108 26.9542 7.50103 26.656C7.54225 26.5182 7.54563 26.3685 7.5107 26.2283C7.47576 26.0881 7.40429 25.9646 7.30651 25.8754C7.20874 25.7863 7.08968 25.7361 6.96637 25.732C6.84306 25.7279 6.72182 25.7702 6.62 25.8528C6.24672 26.1578 5.8039 26.3209 5.35047 26.3203C4.74309 26.3124 4.16308 26.0197 3.73739 25.5062C3.31171 24.9927 3.07504 24.3002 3.07918 23.5804C3.07935 23.0663 3.20066 22.5624 3.42944 22.1255C3.47097 22.046 3.49847 21.9573 3.5103 21.8648C3.52213 21.7724 3.51803 21.678 3.49826 21.5875C3.47849 21.4969 3.44345 21.412 3.39526 21.338C3.34707 21.2639 3.28672 21.2022 3.21785 21.1565C2.59729 20.7399 2.08111 20.1357 1.72197 19.4055C1.36284 18.6753 1.17361 17.8452 1.17361 17C1.17361 16.1548 1.36284 15.3247 1.72197 14.5945C2.08111 13.8643 2.59729 13.2601 3.21785 12.8435C3.28672 12.7978 3.34707 12.7361 3.39526 12.662C3.44345 12.588 3.47849 12.5031 3.49826 12.4125C3.51803 12.322 3.52213 12.2277 3.5103 12.1352C3.49847 12.0427 3.47097 11.954 3.42944 11.8745C3.19909 11.4382 3.07613 10.9343 3.0744 10.4196C3.07026 9.69976 3.30693 9.00731 3.73261 8.49381C4.15829 7.98032 4.73831 7.6876 5.34569 7.67975C5.79912 7.67914 6.24194 7.84221 6.61522 8.14725C6.71703 8.2298 6.83827 8.27206 6.96159 8.26798C7.0849 8.26391 7.20396 8.21371 7.30173 8.12456C7.39951 8.03542 7.47098 7.91191 7.50591 7.7717C7.54085 7.6315 7.53747 7.48179 7.49624 7.344C7.40604 7.04578 7.35955 6.73147 7.35877 6.41467C7.35623 6.00868 7.43073 5.60721 7.57677 5.23994C7.72281 4.87268 7.93664 4.54902 8.20246 4.2929C8.46828 4.03678 8.77928 3.85475 9.11247 3.76027C9.44565 3.66579 9.7925 3.66129 10.1274 3.74708C10.1734 3.75383 10.22 3.75383 10.266 3.74708C10.7778 3.88321 11.2353 4.2213 11.5637 4.70596C11.8921 5.19062 12.0719 5.7931 12.0735 6.41467C12.0735 6.5984 12.1351 6.7746 12.2447 6.90452C12.3543 7.03443 12.503 7.10742 12.658 7.10742C12.8131 7.10742 12.9618 7.03443 13.0714 6.90452C13.181 6.7746 13.2426 6.5984 13.2426 6.41467C13.2417 5.59842 13.0369 4.80076 12.654 4.1223C12.271 3.44385 11.7271 2.91498 11.0909 2.60242C11.2948 2.22996 11.5738 1.92364 11.9028 1.71116C12.2317 1.49868 12.6002 1.38675 12.9748 1.3855C13.5822 1.39335 14.1622 1.68607 14.5879 2.19956C15.0136 2.71306 15.2503 3.40551 15.2461 4.12533V14.8764H14.3866C14.0071 14.9012 13.6346 14.7474 13.3503 14.4484C13.0659 14.1494 12.8928 13.7294 12.8684 13.2798C12.8684 13.0961 12.8069 12.9199 12.6972 12.79C12.5876 12.6601 12.4389 12.5871 12.2839 12.5871C12.1288 12.5871 11.9802 12.6601 11.8705 12.79C11.7609 12.9199 11.6993 13.0961 11.6993 13.2798C11.7249 14.0958 12.0218 14.8666 12.5253 15.424C13.0288 15.9814 13.6979 16.2801 14.3866 16.2548H15.2461V21.1721H14.2503C14.0392 21.1889 13.8309 21.1064 13.6707 20.9426C13.5105 20.7787 13.4112 20.5466 13.3944 20.2966C13.3626 19.2806 12.9927 18.3208 12.3654 17.6271C11.7382 16.9335 10.9047 16.5623 10.0473 16.5948H9.65636C9.50132 16.5948 9.35264 16.6678 9.24301 16.7977C9.13339 16.9277 9.0718 17.1039 9.0718 17.2876C9.0718 17.4713 9.13339 17.6475 9.24301 17.7774C9.35264 17.9073 9.50132 17.9803 9.65636 17.9803H10.0413C10.5891 17.9474 11.1256 18.1724 11.534 18.6063C11.9424 19.0402 12.1896 19.6477 12.2217 20.2966C12.237 20.9152 12.4589 21.5014 12.8386 21.9264C13.2182 22.3514 13.7247 22.5804 14.2468 22.5633H15.2425V29.8818C15.2467 30.6016 15.01 31.294 14.5843 31.8075C14.1586 32.321 13.5786 32.6137 12.9712 32.6216L12.9724 32.6145Z" fill="#E7E7E7"/>
<path d="M7.92794 13.5632C7.92794 12.8493 7.68864 12.1647 7.26269 11.6599C6.83674 11.1551 6.25903 10.8715 5.65665 10.8715H5.41756C5.26253 10.8715 5.11384 10.9445 5.00422 11.0744C4.89459 11.2043 4.83301 11.3806 4.83301 11.5643C4.83301 11.748 4.89459 11.9242 5.00422 12.0541C5.11384 12.184 5.26253 12.257 5.41756 12.257H5.65665C5.80484 12.2513 5.9525 12.2808 6.09084 12.3441C6.22918 12.4073 6.35538 12.5028 6.46193 12.625C6.56848 12.7472 6.65321 12.8935 6.71108 13.0553C6.76894 13.2171 6.79876 13.391 6.79876 13.5667C6.79876 13.7424 6.76894 13.9164 6.71108 14.0781C6.65321 14.2399 6.56848 14.3863 6.46193 14.5084C6.35538 14.6306 6.22918 14.7262 6.09084 14.7894C5.9525 14.8526 5.80484 14.8822 5.65665 14.8764C5.50161 14.8764 5.35293 14.9494 5.2433 15.0793C5.13368 15.2093 5.07209 15.3855 5.07209 15.5692C5.07209 15.7529 5.13368 15.9291 5.2433 16.059C5.35293 16.189 5.50161 16.2619 5.65665 16.2619C5.95542 16.2619 6.25126 16.1921 6.52722 16.0564C6.80317 15.9207 7.05382 15.7218 7.26481 15.4711C7.4758 15.2204 7.64297 14.9228 7.75676 14.5954C7.87056 14.268 7.92873 13.9173 7.92794 13.5632Z" fill="#E7E7E7"/>
<path d="M8.30914 18.7382C7.51429 18.7393 6.75226 19.114 6.19021 19.7801C5.62816 20.4462 5.31198 21.3493 5.31104 22.2912V22.4329C5.31104 22.6166 5.37262 22.7928 5.48225 22.9227C5.59188 23.0527 5.74056 23.1256 5.89559 23.1256C6.05063 23.1256 6.19931 23.0527 6.30894 22.9227C6.41856 22.7928 6.48015 22.6166 6.48015 22.4329V22.2912C6.48078 21.7166 6.67368 21.1657 7.01655 20.7594C7.35941 20.3531 7.82426 20.1245 8.30914 20.1237C8.46417 20.1237 8.61286 20.0507 8.72248 19.9208C8.83211 19.7909 8.8937 19.6147 8.8937 19.431C8.8937 19.2472 8.83211 19.0711 8.72248 18.9411C8.61286 18.8112 8.46417 18.7382 8.30914 18.7382Z" fill="#E7E7E7"/>
<path d="M9.75812 11.6846C10.2971 11.6846 10.814 11.4309 11.1951 10.9793C11.5762 10.5276 11.7903 9.91503 11.7903 9.2763C11.7903 9.09258 11.7287 8.91637 11.6191 8.78645C11.5095 8.65653 11.3608 8.58356 11.2058 8.58356C11.0507 8.58356 10.902 8.65653 10.7924 8.78645C10.6828 8.91637 10.6212 9.09258 10.6212 9.2763C10.6212 9.54795 10.5302 9.80847 10.3681 10.0006C10.206 10.1926 9.98615 10.3006 9.75693 10.3006C9.60189 10.3006 9.4532 10.3735 9.34358 10.5035C9.23395 10.6334 9.17236 10.8096 9.17236 10.9933C9.17236 11.177 9.23395 11.3532 9.34358 11.4832C9.4532 11.6131 9.60189 11.686 9.75693 11.686L9.75812 11.6846Z" fill="#E7E7E7"/>
<path d="M11.9302 24.6033C11.5089 24.6029 11.105 24.4044 10.8072 24.0514C10.5093 23.6984 10.3418 23.2197 10.3415 22.7205C10.3415 22.5368 10.2799 22.3606 10.1703 22.2307C10.0606 22.1008 9.91196 22.0278 9.75693 22.0278C9.60189 22.0278 9.4532 22.1008 9.34358 22.2307C9.23395 22.3606 9.17236 22.5368 9.17236 22.7205C9.173 23.5868 9.4636 24.4175 9.98039 25.0302C10.4972 25.6429 11.198 25.9877 11.929 25.9888C12.084 25.9888 12.2327 25.9158 12.3423 25.7859C12.452 25.656 12.5136 25.4798 12.5136 25.296C12.5136 25.1123 12.452 24.9361 12.3423 24.8062C12.2327 24.6763 12.0852 24.6033 11.9302 24.6033Z" fill="#E7E7E7"/>
<path d="M18.7584 6.26306C18.6033 6.26306 18.4547 6.33605 18.345 6.46597C18.2354 6.59588 18.1738 6.77208 18.1738 6.95581V13.8819C18.1739 13.9859 18.1937 14.0885 18.2317 14.1822C18.2698 14.2759 18.3252 14.3582 18.3938 14.4231L19.894 15.8397C19.8663 15.9757 19.8518 16.1149 19.851 16.2548C19.8494 16.6659 19.9634 17.0659 20.175 17.3916C20.3866 17.7173 20.6839 17.9501 21.0196 18.0532C21.3554 18.1563 21.7106 18.1239 22.0291 17.961C22.3476 17.7981 22.6112 17.5141 22.7782 17.1538C22.9453 16.7936 23.0062 16.3776 22.9514 15.9717C22.8967 15.5658 22.7293 15.193 22.4758 14.9125C22.2223 14.6319 21.8971 14.4594 21.5516 14.4224C21.2062 14.3853 20.8602 14.4857 20.5683 14.7078L19.3394 13.5419V6.95581C19.3394 6.77208 19.2778 6.59588 19.1681 6.46597C19.0585 6.33605 18.9098 6.26306 18.7548 6.26306H18.7584ZM21.7816 16.2619C21.7816 16.3513 21.7592 16.4386 21.7173 16.513C21.6754 16.5873 21.6159 16.6452 21.5462 16.6794C21.4765 16.7136 21.3998 16.7226 21.3259 16.7051C21.2519 16.6877 21.1839 16.6446 21.1306 16.5814C21.0773 16.5182 21.041 16.4377 21.0262 16.3501C21.0115 16.2624 21.0191 16.1715 21.0479 16.089C21.0768 16.0064 21.1257 15.9358 21.1884 15.8861C21.2511 15.8365 21.3248 15.81 21.4003 15.81C21.5006 15.8115 21.5963 15.8597 21.6668 15.9443C21.7373 16.0289 21.7768 16.143 21.7768 16.2619H21.7816Z" fill="#E7E7E7"/>
<path d="M31.6186 19.4551H29.168C29.1501 19.4551 29.1345 19.465 29.1166 19.4678C29.0144 19.457 28.9117 19.4787 28.819 19.5307C28.7263 19.5828 28.647 19.6633 28.5894 19.7639L28.4209 20.0642C28.1065 19.9873 27.7798 20.0276 27.4856 20.1795C27.1914 20.3315 26.944 20.5877 26.7776 20.9129C26.6112 21.2382 26.5339 21.6165 26.5562 21.996C26.5785 22.3754 26.6995 22.7374 26.9024 23.0321C27.1053 23.3268 27.3802 23.5398 27.6894 23.6419C27.9986 23.744 28.3268 23.7301 28.6291 23.6022C28.9314 23.4743 29.1928 23.2386 29.3775 22.9275C29.5622 22.6164 29.661 22.2452 29.6605 21.8648C29.6608 21.4998 29.5688 21.143 29.3963 20.8406H31.0329V24.2746H26.4544L24.2608 21.8775C24.3172 21.6896 24.3471 21.4919 24.3493 21.2925C24.3493 20.9282 24.2581 20.5722 24.0874 20.2693C23.9166 19.9664 23.6739 19.7304 23.39 19.591C23.106 19.4516 22.7935 19.4151 22.4921 19.4862C22.1906 19.5573 21.9137 19.7327 21.6964 19.9902C21.479 20.2478 21.331 20.5759 21.2711 20.9332C21.2111 21.2904 21.2419 21.6607 21.3595 21.9972C21.4771 22.3338 21.6763 22.6214 21.9319 22.8238C22.1874 23.0261 22.4879 23.1341 22.7953 23.1341C23.0375 23.1324 23.276 23.0625 23.491 22.9301L25.8256 25.4802C25.9339 25.5979 26.0755 25.6631 26.2225 25.6629H31.6138C31.7689 25.6629 31.9176 25.5899 32.0272 25.46C32.1368 25.3301 32.1984 25.1539 32.1984 24.9702V20.1535C32.199 20.0625 32.1845 19.9723 32.1557 19.8879C32.1269 19.8036 32.0844 19.7268 32.0306 19.662C31.9767 19.5971 31.9126 19.5454 31.8419 19.5099C31.7712 19.4744 31.6954 19.4558 31.6186 19.4551ZM28.1113 22.3153C28.0358 22.3153 27.9621 22.2888 27.8994 22.2392C27.8367 22.1895 27.7878 22.1189 27.759 22.0363C27.7301 21.9537 27.7225 21.8629 27.7373 21.7752C27.752 21.6876 27.7883 21.607 27.8416 21.5438C27.8949 21.4806 27.9629 21.4376 28.0369 21.4202C28.1108 21.4027 28.1875 21.4117 28.2572 21.4459C28.3269 21.4801 28.3864 21.538 28.4283 21.6123C28.4702 21.6866 28.4926 21.774 28.4926 21.8634C28.4926 21.9233 28.4825 21.9827 28.463 22.038C28.4435 22.0933 28.4149 22.1434 28.3788 22.1855C28.3428 22.2275 28.3 22.2607 28.2531 22.283C28.2061 22.3053 28.1559 22.3162 28.1053 22.3153H28.1113ZM22.4187 21.2911C22.4187 21.2017 22.4411 21.1143 22.483 21.04C22.5249 20.9657 22.5844 20.9077 22.6541 20.8735C22.7238 20.8393 22.8004 20.8304 22.8744 20.8478C22.9484 20.8653 23.0163 20.9083 23.0697 20.9715C23.123 21.0347 23.1593 21.1152 23.174 21.2029C23.1888 21.2906 23.1812 21.3814 23.1523 21.464C23.1235 21.5466 23.0746 21.6172 23.0119 21.6668C22.9492 21.7165 22.8755 21.743 22.8 21.743C22.7496 21.7437 22.6995 21.7326 22.6526 21.7102C22.6058 21.6878 22.5632 21.6547 22.5273 21.6126C22.4914 21.5706 22.4629 21.5205 22.4434 21.4653C22.4239 21.4101 22.4139 21.3509 22.4139 21.2911H22.4187Z" fill="#E7E7E7"/>
<path d="M32.4506 14.8764C32.4004 14.8764 32.3538 14.8878 32.3048 14.8934L31.5875 13.1226V8.34135C31.5875 8.15762 31.5259 7.98141 31.4163 7.8515C31.3067 7.72158 31.158 7.6486 31.003 7.6486H28.0909C28.098 7.61887 28.1032 7.58856 28.1065 7.55793V4.12535C28.1065 3.94162 28.0449 3.76541 27.9353 3.6355C27.8256 3.50558 27.677 3.4326 27.5219 3.4326H24.5991V1.41526C24.5991 1.23154 24.5375 1.05533 24.4279 0.925416C24.3183 0.7955 24.1696 0.722514 24.0146 0.722514H20.2155C20.1982 0.72574 20.1811 0.729995 20.1641 0.735264C19.9483 0.394887 19.6397 0.153631 19.2907 0.0525442C18.9417 -0.0485428 18.574 -0.00321673 18.25 0.180811C17.926 0.364838 17.6659 0.676199 17.5138 1.06192C17.3617 1.44764 17.3271 1.88389 17.4158 2.29644C17.5046 2.709 17.7112 3.07238 18.0005 3.32476C18.2898 3.57713 18.644 3.70292 19.0028 3.6807C19.3616 3.65849 19.7028 3.48966 19.9683 3.20293C20.2339 2.9162 20.4074 2.52928 20.4594 2.10801H23.4312V4.28543C23.1693 4.4783 22.9619 4.75955 22.8359 5.09307C22.7098 5.42659 22.6707 5.79715 22.7237 6.15719C22.7766 6.51722 22.9191 6.85029 23.133 7.11362C23.3468 7.37696 23.6221 7.55854 23.9237 7.63506C24.2252 7.71158 24.5392 7.67954 24.8253 7.54305C25.1113 7.40657 25.3564 7.17187 25.5291 6.86909C25.7018 6.56631 25.7942 6.20927 25.7944 5.84381C25.7947 5.47836 25.7027 5.12116 25.5304 4.8181H26.935V7.55935C26.9383 7.58998 26.9434 7.62029 26.9505 7.65001H26.1723C26.0242 7.64983 25.8815 7.71614 25.773 7.8356L23.7193 10.1023C23.4529 9.86084 23.127 9.72948 22.7917 9.72826C22.4593 9.71319 22.1311 9.82029 21.8521 10.0349C21.5731 10.2495 21.3569 10.5611 21.2331 10.927C21.1094 11.2929 21.0841 11.6952 21.1609 12.0787C21.2376 12.4623 21.4125 12.8084 21.6617 13.0695C21.9108 13.3307 22.2221 13.4941 22.5527 13.5374C22.8833 13.5808 23.2171 13.5019 23.5084 13.3116C23.7997 13.1214 24.0343 12.829 24.1799 12.4746C24.3255 12.1201 24.3751 11.721 24.3218 11.3319L26.4018 9.03551H30.4148V12.4978H28.7281C28.5805 12.4975 28.4384 12.5633 28.33 12.682L27.247 13.872C26.9136 13.71 26.5431 13.6903 26.1988 13.8162C25.8545 13.9422 25.5579 14.2061 25.3596 14.5626C25.1613 14.9192 25.0738 15.3463 25.112 15.7709C25.1501 16.1955 25.3116 16.5912 25.5687 16.8903C25.8259 17.1894 26.1628 17.3733 26.5217 17.4106C26.8807 17.4478 27.2394 17.3361 27.5365 17.0945C27.8336 16.8529 28.0506 16.4965 28.1505 16.0862C28.2503 15.6759 28.2267 15.2372 28.0838 14.8453L28.9588 13.8833H30.6013L31.2731 15.5394C31.0363 15.8671 30.9054 16.2838 30.9038 16.7153C30.9038 17.0795 30.9949 17.4356 31.1657 17.7384C31.3364 18.0413 31.5791 18.2773 31.8631 18.4167C32.147 18.5561 32.4595 18.5926 32.761 18.5215C33.0624 18.4505 33.3393 18.2751 33.5567 18.0175C33.774 17.76 33.922 17.4318 33.982 17.0746C34.0419 16.7173 34.0112 16.347 33.8935 16.0105C33.7759 15.674 33.5767 15.3863 33.3212 15.184C33.0656 14.9816 32.7651 14.8736 32.4578 14.8736L32.4506 14.8764ZM18.9257 2.28935C18.8503 2.28935 18.7765 2.26284 18.7138 2.21319C18.6511 2.16353 18.6022 2.09295 18.5734 2.01037C18.5445 1.92779 18.537 1.83693 18.5517 1.74927C18.5664 1.6616 18.6027 1.58108 18.656 1.51788C18.7094 1.45468 18.7773 1.41163 18.8513 1.3942C18.9253 1.37676 19.0019 1.38571 19.0716 1.41991C19.1413 1.45412 19.2008 1.51204 19.2428 1.58636C19.2847 1.66068 19.307 1.74805 19.307 1.83743C19.307 1.95729 19.2669 2.07223 19.1953 2.15698C19.1238 2.24173 19.0268 2.28935 18.9257 2.28935ZM24.2417 6.2971C24.1663 6.2971 24.0926 6.27059 24.0298 6.22094C23.9671 6.17128 23.9183 6.1007 23.8894 6.01812C23.8605 5.93554 23.853 5.84468 23.8677 5.75702C23.8824 5.66935 23.9187 5.58883 23.9721 5.52563C24.0254 5.46243 24.0933 5.41938 24.1673 5.40195C24.2413 5.38451 24.318 5.39346 24.3876 5.42766C24.4573 5.46187 24.5169 5.51979 24.5588 5.59411C24.6007 5.66843 24.623 5.7558 24.623 5.84518C24.623 5.96504 24.5829 6.07998 24.5113 6.16473C24.4398 6.24948 24.3428 6.2971 24.2417 6.2971ZM22.794 12.019C22.7186 12.019 22.6449 11.9925 22.5822 11.9429C22.5195 11.8932 22.4706 11.8226 22.4417 11.74C22.4129 11.6575 22.4053 11.5666 22.42 11.4789C22.4348 11.3913 22.4711 11.3107 22.5244 11.2475C22.5777 11.1843 22.6457 11.1413 22.7197 11.1239C22.7936 11.1064 22.8703 11.1154 22.94 11.1496C23.0097 11.1838 23.0692 11.2417 23.1111 11.316C23.153 11.3903 23.1754 11.4777 23.1754 11.5671C23.1748 11.6865 23.1343 11.8007 23.0629 11.8848C22.9914 11.969 22.8948 12.0162 22.794 12.0162V12.019ZM26.6564 16.0239C26.581 16.0239 26.5073 15.9974 26.4446 15.9478C26.3819 15.8981 26.333 15.8275 26.3041 15.745C26.2753 15.6624 26.2677 15.5715 26.2824 15.4838C26.2971 15.3962 26.3335 15.3157 26.3868 15.2525C26.4401 15.1893 26.5081 15.1462 26.5821 15.1288C26.656 15.1113 26.7327 15.1203 26.8024 15.1545C26.872 15.1887 26.9316 15.2466 26.9735 15.3209C27.0154 15.3953 27.0378 15.4826 27.0378 15.572C27.0371 15.6914 26.9967 15.8056 26.9252 15.8897C26.8538 15.9739 26.7572 16.0211 26.6564 16.0211V16.0239ZM32.4506 17.1686C32.3752 17.1686 32.3015 17.1421 32.2388 17.0924C32.176 17.0428 32.1272 16.9722 32.0983 16.8896C32.0694 16.807 32.0619 16.7162 32.0766 16.6285C32.0913 16.5409 32.1276 16.4603 32.181 16.3971C32.2343 16.3339 32.3023 16.2909 32.3762 16.2734C32.4502 16.256 32.5269 16.265 32.5965 16.2992C32.6662 16.3334 32.7258 16.3913 32.7677 16.4656C32.8096 16.5399 32.832 16.6273 32.832 16.7167C32.8313 16.836 32.7909 16.9503 32.7194 17.0344C32.648 17.1185 32.5513 17.1658 32.4506 17.1658V17.1686Z" fill="#E7E7E7"/>
<path d="M28.3588 25.959C28.0452 25.9578 27.7386 26.0699 27.48 26.2802C27.2214 26.4906 27.023 26.7893 26.9111 27.1365C26.7992 27.4838 26.7792 27.8632 26.8538 28.2243C26.9283 28.5854 27.0939 28.911 27.3284 29.1578L27.1252 29.7472L24.6256 29.8123C24.616 29.8123 24.6076 29.8123 24.5981 29.8194V28.7938C24.9484 28.697 25.2596 28.4592 25.4786 28.1209C25.6975 27.7826 25.8106 27.3648 25.7986 26.9387C25.7866 26.5126 25.6503 26.1046 25.4128 25.7844C25.1753 25.4641 24.8514 25.2514 24.4964 25.1826C24.1413 25.1138 23.7771 25.193 23.4659 25.4069C23.1547 25.6208 22.9157 25.956 22.7898 26.3553C22.6638 26.7547 22.6587 27.1935 22.7753 27.5968C22.8918 28.0002 23.1229 28.3431 23.429 28.5671V31.1964H20.2408C20.0524 30.8354 19.7643 30.5629 19.4254 30.4255C19.0865 30.288 18.7179 30.294 18.3824 30.4425C18.0469 30.5911 17.7652 30.8729 17.5853 31.2399C17.4055 31.607 17.3386 32.0366 17.396 32.4556C17.4535 32.8745 17.6318 33.2569 17.9005 33.5375C18.1692 33.8182 18.5117 33.9797 18.8697 33.9946C19.2276 34.0095 19.5789 33.8769 19.8636 33.6193C20.1482 33.3617 20.3487 32.9951 20.4309 32.5819H24.0087C24.1638 32.5819 24.3125 32.5089 24.4221 32.379C24.5317 32.2491 24.5933 32.0729 24.5933 31.8892V31.1808C24.6064 31.1808 24.6184 31.1893 24.6327 31.1893H24.6459L27.528 31.1143C27.6414 31.1116 27.7516 31.07 27.8454 30.9946C27.9392 30.9191 28.0125 30.8131 28.0564 30.6893L28.4246 29.6211C28.8304 29.6026 29.2138 29.3956 29.492 29.0449C29.7702 28.6942 29.9209 28.228 29.9115 27.7468C29.902 27.2656 29.7333 26.8081 29.4417 26.4731C29.1501 26.1381 28.759 25.9524 28.3529 25.9562L28.3588 25.959ZM18.9318 32.6173C18.8564 32.6173 18.7827 32.5908 18.7199 32.5412C18.6572 32.4915 18.6084 32.4209 18.5795 32.3384C18.5506 32.2558 18.5431 32.1649 18.5578 32.0773C18.5725 31.9896 18.6088 31.9091 18.6622 31.8459C18.7155 31.7827 18.7834 31.7396 18.8574 31.7222C18.9314 31.7047 19.0081 31.7137 19.0777 31.7479C19.1474 31.7821 19.207 31.84 19.2489 31.9144C19.2908 31.9887 19.3131 32.076 19.3131 32.1654C19.3128 32.2251 19.3025 32.2842 19.2829 32.3391C19.2632 32.3941 19.2345 32.4439 19.1985 32.4857C19.1625 32.5274 19.1198 32.5603 19.073 32.5824C19.0262 32.6045 18.9762 32.6154 18.9258 32.6145L18.9318 32.6173ZM24.243 26.5639C24.3184 26.5639 24.3922 26.5904 24.4549 26.6401C24.5176 26.6898 24.5665 26.7603 24.5953 26.8429C24.6242 26.9255 24.6317 27.0163 24.617 27.104C24.6023 27.1917 24.566 27.2722 24.5127 27.3354C24.4593 27.3986 24.3914 27.4416 24.3174 27.4591C24.2434 27.4765 24.1668 27.4676 24.0971 27.4334C24.0274 27.3992 23.9679 27.3412 23.926 27.2669C23.884 27.1926 23.8617 27.1052 23.8617 27.0158C23.8614 26.9564 23.871 26.8974 23.8899 26.8424C23.9089 26.7873 23.9368 26.7372 23.9721 26.695C24.0074 26.6527 24.0494 26.6191 24.0957 26.5962C24.142 26.5732 24.1916 26.5613 24.2418 26.5611L24.243 26.5639ZM28.3983 28.2413C28.369 28.2125 28.3374 28.1874 28.3039 28.1662C28.2361 28.1345 28.1639 28.1182 28.0911 28.118C28.0276 28.0463 27.9867 27.9512 27.9751 27.8482C27.9635 27.7452 27.9819 27.6406 28.0272 27.5517C28.0726 27.4628 28.1422 27.3949 28.2245 27.3593C28.3069 27.3237 28.397 27.3224 28.48 27.3557C28.5631 27.389 28.634 27.4549 28.6812 27.5425C28.7283 27.6301 28.7488 27.7341 28.7393 27.8374C28.7297 27.9406 28.6907 28.037 28.6287 28.1104C28.5667 28.1839 28.4854 28.23 28.3983 28.2413Z" fill="#E7E7E7"/>
<path d="M17.5845 20.5346V27.7384C17.5845 27.9221 17.6461 28.0983 17.7557 28.2282C17.8654 28.3581 18.014 28.4311 18.1691 28.4311H19.1146C19.292 28.8024 19.5726 29.0893 19.9086 29.2426C20.2446 29.396 20.6151 29.4063 20.9568 29.2719C21.2985 29.1374 21.5902 28.8665 21.7821 28.5055C21.9739 28.1444 22.0541 27.7157 22.0088 27.2924C21.9635 26.8691 21.7956 26.4775 21.5338 26.1847C21.2719 25.8918 20.9324 25.7158 20.5732 25.6866C20.214 25.6575 19.8574 25.7771 19.5644 26.025C19.2713 26.2728 19.0599 26.6336 18.9664 27.0456H18.7536V20.7698L19.802 19.1548C19.8491 19.0827 19.8837 19.0003 19.904 18.9124C19.9242 18.8244 19.9296 18.7326 19.9199 18.6421C19.9102 18.5517 19.8856 18.4644 19.8474 18.3852C19.8092 18.3061 19.7582 18.2366 19.6974 18.1808C19.6366 18.125 19.5671 18.0839 19.4928 18.06C19.4186 18.036 19.3411 18.0296 19.2648 18.0411C19.1885 18.0526 19.1148 18.0818 19.0481 18.127C18.9813 18.1723 18.9226 18.2327 18.8756 18.3048L17.7064 20.1054C17.6262 20.2281 17.5832 20.3793 17.5845 20.5346ZM20.4535 27.0768C20.5289 27.0768 20.6026 27.1033 20.6654 27.1529C20.7281 27.2026 20.7769 27.2732 20.8058 27.3557C20.8347 27.4383 20.8422 27.5292 20.8275 27.6168C20.8128 27.7045 20.7765 27.7851 20.7231 27.8483C20.6698 27.9115 20.6019 27.9545 20.5279 27.9719C20.4539 27.9894 20.3772 27.9804 20.3076 27.9462C20.2379 27.912 20.1783 27.8541 20.1364 27.7798C20.0945 27.7055 20.0722 27.6181 20.0722 27.5287C20.0719 27.4689 20.0816 27.4096 20.1007 27.3542C20.1199 27.2989 20.1482 27.2486 20.1839 27.2063C20.2196 27.164 20.262 27.1305 20.3087 27.1078C20.3554 27.0851 20.4054 27.0736 20.4559 27.0739L20.4535 27.0768Z" fill="#E7E7E7"/>
</g>
<defs>
<clipPath id="clip0_754_40">
<rect width="34" height="34" fill="white"/>
</clipPath>
</defs>
</svg>
