<svg width="35" height="34" viewBox="0 0 35 34" fill="none" xmlns="http://www.w3.org/2000/svg">
<g clip-path="url(#clip0_754_61)">
<path d="M22.9395 11.5529C22.6299 11.4658 22.3035 11.4624 21.9923 11.543L20.959 9.70135L20.0938 10.2071L21.127 12.0488C20.8413 12.3439 20.6581 12.7264 20.6054 13.1377C20.5527 13.549 20.6335 13.9667 20.8354 14.3268L21.3534 15.2519C21.4742 15.4687 21.6359 15.659 21.8293 15.8117C22.0226 15.9644 22.2437 16.0765 22.4797 16.1415C22.64 16.1863 22.8053 16.2092 22.9714 16.2095C23.125 16.2096 23.2781 16.1901 23.4269 16.1514L23.6297 16.5141C23.3441 16.8094 23.1611 17.1918 23.1084 17.6031C23.0558 18.0144 23.1364 18.4319 23.3381 18.7921L23.8561 19.7172C24.0578 20.0777 24.3698 20.3607 24.7444 20.523C25.1189 20.6852 25.5353 20.7177 25.9296 20.6153L26.9712 22.4712L27.8365 21.9654L26.7949 20.1082C27.0805 19.8129 27.2635 19.4305 27.3162 19.0192C27.3688 18.6079 27.2882 18.1904 27.0865 17.8302L26.5685 16.9051C26.3661 16.5456 26.0542 16.2635 25.6801 16.1016C25.306 15.9397 24.8904 15.907 24.4964 16.0083L24.2936 15.6457C24.5793 15.3505 24.7626 14.9681 24.8152 14.5567C24.8679 14.1454 24.7871 13.7278 24.5852 13.3677L24.0672 12.4426C23.9464 12.2255 23.7845 12.035 23.5909 11.8823C23.3973 11.7296 23.1759 11.6176 22.9395 11.5529ZM25.7032 17.4094L26.2227 18.3345C26.2912 18.4568 26.33 18.5941 26.3358 18.7348C26.3416 18.8756 26.3143 19.0157 26.256 19.1434L25.9657 18.6263L25.1005 19.1321L25.3907 19.6492C25.3438 19.644 25.2974 19.635 25.2519 19.6223C25.1422 19.5923 25.0395 19.5404 24.9496 19.4696C24.8597 19.3989 24.7845 19.3106 24.7283 19.21L24.2102 18.2849C24.1417 18.1626 24.1029 18.0254 24.0971 17.8846C24.0913 17.7439 24.1187 17.6037 24.1769 17.476L24.4741 18.0059L25.3394 17.5001L25.0421 16.9703C25.1786 16.9847 25.3098 17.032 25.4247 17.1084C25.5397 17.1847 25.6352 17.2879 25.7032 17.4094ZM23.463 14.1638L22.5978 14.6696L22.8881 15.1867C22.8411 15.1815 22.7947 15.1725 22.7492 15.1598C22.6397 15.1297 22.5373 15.0778 22.4476 15.007C22.358 14.9362 22.283 14.848 22.227 14.7475L21.709 13.8224C21.6524 13.7222 21.6159 13.6114 21.6016 13.4966C21.5872 13.3818 21.5954 13.2653 21.6256 13.1538C21.6384 13.1052 21.6551 13.0578 21.6756 13.0121L21.9728 13.5433L22.8381 13.0376L22.5409 12.5078C22.6783 12.5212 22.8106 12.5681 22.9266 12.6445C23.0426 12.7209 23.139 12.8246 23.2075 12.9469L23.7255 13.872C23.7821 13.9723 23.8186 14.083 23.8329 14.1978C23.8472 14.3126 23.839 14.4292 23.8089 14.5407C23.7961 14.5892 23.7794 14.6366 23.7589 14.6823L23.463 14.1638Z" fill="#E7E7E7"/>
<path d="M7.72071 22.4698L8.76234 20.6125C9.15649 20.7138 9.57229 20.6808 9.94638 20.5187C10.3205 20.3565 10.6323 20.0741 10.8345 19.7144L11.3539 18.7893C11.5555 18.4291 11.6362 18.0115 11.5835 17.6003C11.5309 17.189 11.3478 16.8066 11.0622 16.5113L11.265 16.1486C11.6592 16.2498 12.075 16.2169 12.4491 16.0547C12.8231 15.8926 13.135 15.6102 13.3371 15.2505L13.8552 14.3254C14.0568 13.9652 14.1375 13.5476 14.0848 13.1363C14.0322 12.7251 13.8491 12.3426 13.5635 12.0474L14.5968 10.2057L13.7316 9.69995L12.6983 11.5416C12.3043 11.4402 11.8886 11.473 11.5145 11.6349C11.1404 11.7968 10.8285 12.0789 10.6262 12.4384L10.1081 13.3634C9.90647 13.7236 9.82581 14.1412 9.87847 14.5524C9.93113 14.9637 10.1142 15.3462 10.3998 15.6415L10.197 16.0041C9.80264 15.9023 9.38645 15.935 9.01202 16.0972C8.63759 16.2593 8.32551 16.5421 8.12348 16.9023L7.60544 17.8274C7.40379 18.1875 7.32315 18.6051 7.3758 19.0164C7.42846 19.4276 7.61152 19.8101 7.89709 20.1054L6.85547 21.9612L7.72071 22.4698ZM10.8886 14.5365C10.8585 14.4249 10.8504 14.3084 10.8647 14.1936C10.879 14.0788 10.9155 13.9681 10.972 13.8678L11.49 12.9427C11.5586 12.8205 11.655 12.7168 11.771 12.6404C11.887 12.564 12.0192 12.517 12.1566 12.5035L11.8594 13.0334L12.7247 13.5391L13.0219 13.0093C13.0802 13.137 13.1077 13.2771 13.1019 13.4179C13.0961 13.5586 13.0572 13.6959 12.9886 13.8182L12.4705 14.7433C12.4019 14.8655 12.3056 14.9692 12.1896 15.0456C12.0736 15.122 11.9413 15.1689 11.8039 15.1824L12.0941 14.6654L11.2289 14.1596L10.9386 14.6767C10.9188 14.6328 10.9025 14.5873 10.89 14.5407L10.8886 14.5365ZM8.4693 18.3303L8.98733 17.4052C9.04332 17.3047 9.1183 17.2165 9.20794 17.1457C9.29758 17.0749 9.40009 17.023 9.50953 16.9929C9.55503 16.9801 9.60148 16.9711 9.64841 16.966L9.35121 17.4959L10.2164 18.0016L10.5137 17.4718C10.5719 17.5995 10.5993 17.7396 10.5935 17.8804C10.5877 18.0211 10.5489 18.1584 10.4803 18.2807L9.9609 19.2058C9.89236 19.3281 9.79605 19.4318 9.68004 19.5082C9.56403 19.5846 9.43173 19.6315 9.29426 19.6449L9.58453 19.1279L8.71929 18.6221L8.42902 19.1392C8.37262 19.0114 8.34698 18.8717 8.35422 18.7317C8.36147 18.5917 8.4014 18.4556 8.47068 18.3345L8.4693 18.3303Z" fill="#E7E7E7"/>
<path d="M22.3536 27.8205H24.4368V26.8034H22.3536C22.2432 26.4052 22.0086 26.0547 21.6853 25.8049C21.3619 25.5551 20.9676 25.4197 20.562 25.4193H19.5176C19.1112 25.4209 18.7165 25.558 18.3935 25.8097C18.0706 26.0613 17.8372 26.4138 17.7287 26.8133H17.319C17.2087 26.4151 16.9741 26.0646 16.6508 25.8148C16.3274 25.565 15.933 25.4296 15.5274 25.4292H14.483C14.0762 25.4306 13.6811 25.5678 13.3578 25.8197C13.0346 26.0717 12.801 26.4246 12.6928 26.8246H10.5957V27.8418H12.6928C12.8031 28.2399 13.0378 28.5905 13.3611 28.8403C13.6845 29.09 14.0788 29.2254 14.4844 29.2259H15.5288C15.9357 29.2246 16.331 29.0876 16.6543 28.8356C16.9775 28.5836 17.211 28.2305 17.319 27.8304H17.7273C17.8375 28.2287 18.072 28.5794 18.3954 28.8292C18.7188 29.079 19.1133 29.2143 19.519 29.2145H20.5634C20.9702 29.2131 21.3653 29.0759 21.6886 28.824C22.0118 28.572 22.2453 28.2191 22.3536 27.8191V27.8205ZM16.1302 27.9523C16.0504 28.0344 15.9554 28.0996 15.8508 28.1441C15.7461 28.1886 15.6339 28.2115 15.5205 28.2115H14.4761C14.3386 28.2115 14.203 28.178 14.0807 28.1136C13.9585 28.0493 13.8531 27.9561 13.7733 27.8418H14.3567V26.8246H13.772C13.8516 26.7095 13.957 26.6154 14.0795 26.5504C14.202 26.4853 14.338 26.4511 14.4761 26.4506H15.5205C15.6582 26.4508 15.7939 26.4845 15.9163 26.5488C16.0387 26.6131 16.1444 26.7062 16.2246 26.8204H15.6247V27.8375H16.2246C16.1964 27.8784 16.1648 27.9168 16.1302 27.9523ZM20.5606 28.1973H19.5162C19.4032 28.1975 19.2913 28.175 19.187 28.131C19.0826 28.087 18.9877 28.0224 18.9079 27.9409C18.8733 27.9054 18.8417 27.867 18.8134 27.8262H19.3981V26.809H18.8148C18.8943 26.6938 18.9997 26.5997 19.1223 26.5346C19.2448 26.4695 19.3808 26.4354 19.519 26.435H20.5634C20.7009 26.435 20.8365 26.4686 20.9587 26.5329C21.081 26.5972 21.1864 26.6904 21.2661 26.8047H20.6675V27.8219H21.2661C21.2379 27.8628 21.2063 27.9012 21.1717 27.9367C21.092 28.0196 20.9969 28.0855 20.892 28.1304C20.7871 28.1754 20.6744 28.1987 20.5606 28.1988V28.1973Z" fill="#E7E7E7"/>
<path d="M17.8453 14.008V8.37389L22.6284 5.55756L22.1298 4.67639L17.3467 7.49273L12.5635 4.67639L12.0649 5.55756L16.8481 8.37389V14.008H17.8453Z" fill="#E7E7E7"/>
<path d="M32.2514 22.5123L27.4697 25.3314L22.6851 22.5165L22.1865 23.3977L26.9711 26.2126V31.8467H27.9683V26.2126L32.75 23.3934L32.2514 22.5123Z" fill="#E7E7E7"/>
<path d="M7.69291 31.8099V26.1758L12.4761 23.3594L11.9775 22.4783L7.19433 25.2946L2.41119 22.4783L1.9126 23.3594L6.69574 26.1758V31.8099H7.69291Z" fill="#E7E7E7"/>
<path d="M11.4775 4.62825L17.3467 1.17442L23.2103 4.62825V10.9579H24.2075V4.04033L17.3467 0L10.4858 4.04033V10.9579H11.483L11.4775 4.62825Z" fill="#E7E7E7"/>
<path d="M17.3497 16.1557L20.1037 14.5336L19.6051 13.6524L17.3497 14.9812L15.0928 13.6524L14.5942 14.5336L17.3497 16.1557Z" fill="#E7E7E7"/>
<path d="M7.1944 32.7887L1.33214 29.3349V22.4287L6.77775 19.2284L6.27916 18.3473L0.334961 21.8422V29.9172L7.19579 33.9575L13.5289 30.2345L13.0303 29.3533L7.1944 32.7887Z" fill="#E7E7E7"/>
<path d="M14.0567 24.752V21.8422L11.3804 20.2654L10.8818 21.1466L13.0595 22.4287V24.7506L14.0567 24.752Z" fill="#E7E7E7"/>
<path d="M34.3226 21.8762L28.4062 18.3954L27.9076 19.2766L33.324 22.4641V29.3703L27.4617 32.827L21.73 29.4554L21.2314 30.3365L27.4617 34.0014L34.3198 29.9583L34.3226 21.8762Z" fill="#E7E7E7"/>
<path d="M23.3257 20.2796L20.6064 21.8833V24.6302H21.6036V22.4698L23.8257 21.1608L23.3257 20.2796Z" fill="#E7E7E7"/>
<path d="M14.2134 4.98241L13.7134 4.10266L14.5758 3.59266L15.0758 4.47241L14.2134 4.98241ZM20.1312 4.77416L17.3438 3.13224L17.0896 3.28241L16.5896 2.40266L17.3424 1.95782L20.6298 3.89441L20.1312 4.77416ZM15.6508 4.13241L15.1508 3.25266L16.0133 2.74266L16.5133 3.62241L15.6508 4.13241Z" fill="#E7E7E7"/>
<path d="M29.3853 30.9159L28.8867 30.0348L31.6741 28.3914V28.0925H32.6713V28.9808L29.3853 30.9159ZM31.6713 27.4139V26.3968H32.6685V27.4139H31.6713ZM31.6713 25.7139V24.6968H32.6685V25.7139H31.6713Z" fill="#E7E7E7"/>
<path d="M5.63206 31.076L1.99609 28.951V27.8871H2.99328V28.3631L6.12926 30.2047L5.63206 31.076ZM1.99609 27.2014V26.1843H2.99328V27.2014H1.99609ZM2.99328 25.5014H1.99609V24.4843H2.99328V25.5014Z" fill="#E7E7E7"/>
</g>
<defs>
<clipPath id="clip0_754_61">
<rect width="34" height="34" fill="white" transform="translate(0.333496)"/>
</clipPath>
</defs>
</svg>
