<svg width="35" height="34" viewBox="0 0 35 34" fill="none" xmlns="http://www.w3.org/2000/svg">
<g clip-path="url(#clip0_754_2)">
<path d="M17.1177 2.19336H20.4085V3.29074H17.1177V2.19336Z" fill="#E7E7E7"/>
<path d="M14.9243 2.19336H16.0217V3.29074H14.9243V2.19336Z" fill="#E7E7E7"/>
<path d="M11.956 28.516H11.635C11.4909 28.516 11.3482 28.5444 11.2151 28.5995C11.0819 28.6547 10.9609 28.7355 10.859 28.8374C10.7571 28.9393 10.6763 29.0603 10.6211 29.1934C10.566 29.3266 10.5376 29.4693 10.5376 29.6134V30.7108C10.5376 30.8549 10.566 30.9976 10.6211 31.1307C10.6763 31.2638 10.7571 31.3848 10.859 31.4867C10.9609 31.5886 11.0819 31.6695 11.2151 31.7246C11.3482 31.7797 11.4909 31.8081 11.635 31.8081H11.956C12.1 31.8085 12.2426 31.7804 12.3757 31.7253C12.5087 31.6702 12.6295 31.5892 12.731 31.4872L14.0554 30.1628L12.731 28.8384C12.6296 28.7361 12.5089 28.6549 12.3758 28.5995C12.2428 28.5442 12.1001 28.5158 11.956 28.516ZM11.956 30.7093H11.635V29.6119H11.956L12.504 30.1599L11.956 30.7093Z" fill="#E7E7E7"/>
<path d="M18.2154 28.516H17.1179C16.8269 28.516 16.5477 28.6316 16.3419 28.8374C16.1361 29.0432 16.0205 29.3223 16.0205 29.6134V30.7108C16.0205 31.0018 16.1361 31.2809 16.3419 31.4867C16.5477 31.6925 16.8269 31.8081 17.1179 31.8081H18.2154C18.5064 31.8081 18.7856 31.6925 18.9914 31.4867C19.1972 31.2809 19.3128 31.0018 19.3128 30.7108V29.6134C19.3128 29.3223 19.1972 29.0432 18.9914 28.8374C18.7856 28.6316 18.5064 28.516 18.2154 28.516ZM17.1179 30.7093V29.6119H18.2154V30.7093H17.1179Z" fill="#E7E7E7"/>
<path d="M23.6992 28.516H23.3782C23.2342 28.5156 23.0916 28.5438 22.9586 28.5989C22.8256 28.6539 22.7048 28.7349 22.6032 28.837L21.2788 30.1613L22.6032 31.4857C22.7048 31.5878 22.8256 31.6687 22.9586 31.7238C23.0916 31.7789 23.2342 31.8071 23.3782 31.8067H23.6992C23.9903 31.8067 24.2694 31.6911 24.4752 31.4853C24.681 31.2795 24.7967 31.0004 24.7967 30.7093V29.6119C24.7963 29.3211 24.6805 29.0424 24.4747 28.8369C24.2689 28.6314 23.99 28.516 23.6992 28.516ZM23.3782 30.7093L22.8302 30.1613L23.3782 29.6134H23.6992V30.7108L23.3782 30.7093Z" fill="#E7E7E7"/>
<path d="M13.8286 17C13.8286 16.0238 13.5391 15.0694 12.9967 14.2577C12.4543 13.446 11.6833 12.8133 10.7813 12.4397C9.87935 12.0661 8.88683 11.9684 7.9293 12.1588C6.97176 12.3493 6.0922 12.8194 5.40185 13.5097C4.7115 14.2 4.24137 15.0795 4.05091 16.037C3.86044 16.9945 3.95819 17.987 4.33181 18.889C4.70542 19.7909 5.33811 20.5618 6.14987 21.1042C6.96164 21.6466 7.91601 21.9361 8.89231 21.9361C10.201 21.9345 11.4557 21.414 12.3811 20.4886C13.3065 19.5633 13.827 18.3087 13.8286 17ZM5.05493 17C5.05493 16.2408 5.28007 15.4986 5.70189 14.8674C6.12371 14.2361 6.72325 13.7441 7.4247 13.4535C8.12616 13.163 8.89802 13.087 9.64267 13.2351C10.3873 13.3832 11.0713 13.7488 11.6082 14.2857C12.1451 14.8225 12.5107 15.5065 12.6588 16.2511C12.8069 16.9958 12.7309 17.7676 12.4404 18.469C12.1498 19.1704 11.6578 19.7699 11.0265 20.1917C10.3952 20.6135 9.653 20.8387 8.89376 20.8387C7.87599 20.8375 6.90023 20.4327 6.18056 19.7131C5.46089 18.9934 5.05608 18.0177 5.05493 17Z" fill="#E7E7E7"/>
<path d="M11.635 17.0044C11.635 16.4611 11.4739 15.93 11.172 15.4782C10.8701 15.0264 10.4411 14.6744 9.93911 14.4664C9.43713 14.2585 8.88476 14.2041 8.35186 14.3101C7.81896 14.4161 7.32946 14.6777 6.94526 15.0619C6.56106 15.4461 6.29941 15.9356 6.19341 16.4685C6.08741 17.0013 6.14182 17.5537 6.34974 18.0556C6.55767 18.5576 6.90978 18.9866 7.36156 19.2885C7.81333 19.5903 8.34447 19.7515 8.88781 19.7515C9.61641 19.7515 10.3152 19.462 10.8304 18.9469C11.3456 18.4317 11.635 17.733 11.635 17.0044ZM7.24817 17.0044C7.24703 16.6789 7.34245 16.3604 7.52237 16.0892C7.70228 15.8179 7.9586 15.6061 8.2589 15.4806C8.55921 15.355 8.89 15.3214 9.20945 15.3839C9.52889 15.4463 9.82262 15.6022 10.0535 15.8316C10.2843 16.061 10.442 16.3538 10.5064 16.6728C10.5709 16.9919 10.5392 17.3229 10.4155 17.6239C10.2918 17.925 10.0816 18.1826 9.81149 18.3641C9.54135 18.5457 9.22342 18.6431 8.89793 18.644C8.4619 18.6447 8.04337 18.4726 7.7341 18.1652C7.42484 17.8578 7.25009 17.4404 7.24817 17.0044Z" fill="#E7E7E7"/>
<path d="M28.0863 10.968V2.74707C28.0863 2.0185 27.7968 1.31977 27.2816 0.804597C26.7664 0.289422 26.0677 0 25.3391 0H9.98957C9.26098 0 8.56222 0.289422 8.04702 0.804597C7.53183 1.31977 7.24239 2.0185 7.24239 2.74707V8.77471H6.82164L6.43125 10.3116C6.2563 10.3767 6.08135 10.4562 5.90639 10.5314L4.54148 9.72028L1.61067 12.6481L2.42181 14.0129C2.34084 14.1864 2.2671 14.3628 2.20203 14.5378L0.666504 14.9281V19.0704L2.20348 19.4608C2.26855 19.6357 2.34807 19.8107 2.42325 19.9856L1.61211 21.3505L4.54148 24.2797L5.90639 23.4686C6.0799 23.5496 6.25485 23.6228 6.43125 23.6884L6.82164 25.2238H7.24818V31.2558C7.24818 31.9844 7.53761 32.6831 8.05281 33.1983C8.568 33.7135 9.26676 34.0029 9.99536 34.0029H25.3507C26.0793 34.0029 26.778 33.7135 27.2932 33.1983C27.8084 32.6831 28.0978 31.9844 28.0978 31.2558V24.1294C29.8188 24.0933 31.457 23.3843 32.6613 22.1546C33.8657 20.9248 34.5401 19.2721 34.5401 17.5509C34.5401 15.8296 33.8657 14.1769 32.6613 12.9472C31.457 11.7174 29.8188 11.0084 28.0978 10.9724L28.0863 10.968ZM33.5705 17.548C33.5716 18.6348 33.2479 19.6971 32.6408 20.5987C32.3926 19.9932 32.0258 19.4434 31.562 18.9818C31.0981 18.5202 30.5466 18.1561 29.9399 17.9109C30.3487 17.5372 30.6349 17.0487 30.7612 16.5095C30.8874 15.9703 30.8477 15.4055 30.6472 14.8892C30.4468 14.373 30.095 13.9293 29.638 13.6165C29.181 13.3037 28.6401 13.1363 28.0863 13.1363C27.5325 13.1363 26.9916 13.3037 26.5345 13.6165C26.0775 13.9293 25.7257 14.373 25.5253 14.8892C25.3249 15.4055 25.2852 15.9703 25.4114 16.5095C25.5376 17.0487 25.8239 17.5372 26.2327 17.9109C25.6259 18.1561 25.0744 18.5202 24.6106 18.9818C24.1467 19.4434 23.7799 19.9932 23.5317 20.5987C23.0553 19.8871 22.7522 19.0739 22.6467 18.2241C22.5412 17.3743 22.6362 16.5116 22.9241 15.7052C23.212 14.8987 23.6848 14.1709 24.3047 13.5801C24.9245 12.9893 25.6741 12.5518 26.4935 12.3029C27.3128 12.0539 28.1791 12.0002 29.0229 12.1463C29.8667 12.2923 30.6645 12.634 31.3525 13.1439C32.0404 13.6538 32.5994 14.3177 32.9846 15.0825C33.3698 15.8473 33.5704 16.6917 33.5705 17.548ZM26.4409 15.9041C26.4409 15.5786 26.5374 15.2605 26.7182 14.99C26.899 14.7194 27.1559 14.5085 27.4566 14.384C27.7573 14.2594 28.0881 14.2268 28.4073 14.2903C28.7265 14.3538 29.0196 14.5105 29.2498 14.7406C29.4799 14.9707 29.6366 15.2639 29.7001 15.5831C29.7636 15.9022 29.731 16.2331 29.6064 16.5337C29.4819 16.8344 29.271 17.0913 29.0004 17.2721C28.7298 17.4529 28.4117 17.5494 28.0863 17.5494C27.65 17.549 27.2317 17.3756 26.9232 17.0671C26.6147 16.7586 26.4412 16.3403 26.4409 15.9041ZM10.5361 25.2267H10.9627L11.353 23.6898C11.528 23.6248 11.7029 23.5452 11.8779 23.4701L13.2428 24.2812L16.1722 21.3519L15.361 19.9871C15.442 19.8136 15.5153 19.6386 15.5808 19.4622L17.1178 19.0719V14.9281L15.5808 14.5378C15.5157 14.3628 15.4362 14.1879 15.361 14.0129L16.1722 12.6481L13.2457 9.71883L11.8808 10.5299C11.7073 10.449 11.5323 10.3757 11.3559 10.3102L10.9655 8.77326H10.5376V5.48401H24.7954V11.8558C23.7954 12.4314 22.9647 13.2605 22.3871 14.2594C21.8095 15.2584 21.5053 16.3919 21.5053 17.5458C21.5053 18.6997 21.8095 19.8332 22.3871 20.8321C22.9647 21.8311 23.7954 22.6602 24.7954 23.2358V26.3198H10.5376L10.5361 25.2267ZM8.34416 2.74707C8.34378 2.53068 8.38604 2.31635 8.46855 2.11631C8.55105 1.91627 8.67217 1.73445 8.82498 1.58125C8.97779 1.42804 9.15929 1.30645 9.35912 1.22343C9.55895 1.1404 9.77318 1.09757 9.98957 1.09738H25.3449C25.5611 1.09776 25.7752 1.14073 25.9749 1.22384C26.1745 1.30695 26.3559 1.42857 26.5085 1.58176C26.6612 1.73495 26.7822 1.9167 26.8646 2.11664C26.947 2.31659 26.9892 2.53081 26.9888 2.74707V11.0663C26.6153 11.1307 26.2481 11.2275 25.8914 11.3555V4.38663H9.44014V8.77471H8.34416V2.74707ZM6.13195 22.3597L5.86157 22.2151L4.71209 22.899L2.99004 21.1799L3.67395 20.0304L3.52936 19.7601C3.37538 19.4638 3.24625 19.1553 3.14331 18.8376L3.05077 18.5485L1.76393 18.2174V15.7812L3.05511 15.453L3.14764 15.1638C3.25064 14.8457 3.37976 14.5367 3.53369 14.2399L3.67828 13.9696L2.99438 12.8201L4.71498 11.0967L5.86446 11.7806L6.13484 11.636C6.43113 11.482 6.73968 11.3529 7.05732 11.25L7.3465 11.1574L7.67616 9.8663H10.111L10.4392 11.1574L10.7284 11.25C11.0461 11.3528 11.3547 11.4819 11.6509 11.636L11.9213 11.7806L13.0708 11.0967L14.7943 12.8201L14.1103 13.9696L14.2549 14.2399C14.4089 14.5367 14.538 14.8457 14.641 15.1638L14.7335 15.453L16.0261 15.7812V18.2174L14.735 18.5456L14.6424 18.8348C14.5396 19.1524 14.4105 19.461 14.2564 19.7572L14.1118 20.0276L14.7957 21.177L13.0722 22.9019L11.9227 22.218L11.6523 22.3626C11.3561 22.5165 11.0475 22.6457 10.7299 22.7486L10.4407 22.8411L10.111 24.1337H7.67327L7.34505 22.844L7.05587 22.7515C6.73753 22.6468 6.42848 22.5158 6.13195 22.3597ZM26.9888 31.2587C26.9885 31.695 26.815 32.1133 26.5065 32.4217C26.198 32.7302 25.7797 32.9037 25.3434 32.9041H9.98957C9.55305 32.9037 9.13453 32.73 8.826 32.4212C8.51747 32.1124 8.34416 31.6938 8.34416 31.2573V25.2253H9.44158V27.4186H25.8929V23.7448C26.2495 23.8731 26.6167 23.9698 26.9903 24.0339L26.9888 31.2587ZM24.3646 21.5717C24.5679 20.7383 25.0452 19.9973 25.7199 19.4674C26.3946 18.9376 27.2277 18.6496 28.0856 18.6496C28.9434 18.6496 29.7765 18.9376 30.4512 19.4674C31.1259 19.9973 31.6032 20.7383 31.8065 21.5717C30.7968 22.5144 29.4669 23.0387 28.0856 23.0387C26.7042 23.0387 25.3743 22.5144 24.3646 21.5717Z" fill="#E7E7E7"/>
<path d="M17.1177 6.24158V13.4967L24.376 9.8677L17.1177 6.24158ZM18.2151 8.0156L21.9238 9.8706L18.2151 11.7256V8.0156Z" fill="#E7E7E7"/>
</g>
<defs>
<clipPath id="clip0_754_2">
<rect width="34" height="34" fill="white" transform="translate(0.666504)"/>
</clipPath>
</defs>
</svg>
