<svg width="34" height="34" viewBox="0 0 34 34" fill="none" xmlns="http://www.w3.org/2000/svg">
<g clip-path="url(#clip0_754_19)">
<path d="M24.793 23.4841C24.7221 23.4061 17.6926 15.6244 17.6629 7.1924C17.655 7.02168 17.5816 6.86056 17.458 6.74254C17.3344 6.62451 17.17 6.55865 16.9991 6.55865C16.8282 6.55865 16.6639 6.62451 16.5403 6.74254C16.4167 6.86056 16.3433 7.02168 16.3354 7.1924C16.1389 11.2057 14.915 15.1013 12.781 18.5059C11.7466 20.2773 10.5496 21.9487 9.20536 23.4982C9.13993 23.5698 9.09096 23.6548 9.06187 23.7472C9.03278 23.8397 9.02428 23.9375 9.03697 24.0336C9.04966 24.1297 9.08322 24.2219 9.13532 24.3036C9.18742 24.3854 9.25676 24.4548 9.33852 24.5069C10.0108 24.9588 10.6371 25.4755 11.2085 26.0496C11.9844 26.7727 12.5607 27.6837 12.8816 28.6946H12.1449C11.687 28.6949 11.248 28.877 10.9242 29.2008C10.6005 29.5246 10.4184 29.9636 10.418 30.4215V33.0735C10.4184 33.3198 10.5164 33.556 10.6906 33.7302C10.8648 33.9044 11.101 34.0024 11.3473 34.0028H22.7487C22.995 34.0024 23.2312 33.9044 23.4054 33.7302C23.5796 33.556 23.6777 33.3198 23.678 33.0735V30.4215C23.6777 29.9636 23.4956 29.5246 23.1718 29.2008C22.848 28.877 22.409 28.6949 21.9511 28.6946H21.1195C21.4407 27.6814 22.0174 26.7681 22.794 26.0426C23.3653 25.4666 23.9916 24.948 24.664 24.4941C24.7455 24.4419 24.8145 24.3725 24.8663 24.2908C24.9181 24.2091 24.9514 24.1171 24.964 24.0211C24.9765 23.9252 24.968 23.8277 24.9389 23.7354C24.9099 23.6431 24.861 23.5583 24.7958 23.4869L24.793 23.4841ZM21.9483 30.0191C22.0537 30.0195 22.1548 30.0616 22.2294 30.1361C22.3039 30.2107 22.346 30.3118 22.3464 30.4172V32.6711H11.7426V30.4172C11.743 30.3118 11.785 30.2107 11.8596 30.1361C11.9342 30.0616 12.0352 30.0195 12.1407 30.0191H21.9483ZM21.8647 25.0877C20.8081 26.043 20.0732 27.302 19.7609 28.6917H14.2359C13.9242 27.3027 13.1886 26.0448 12.1308 25.092C11.6751 24.6336 11.188 24.2076 10.673 23.817C11.8711 22.3643 12.953 20.8196 13.9087 19.1972C15.2605 16.9445 16.3004 14.5188 16.9999 11.9864C17.6999 14.5163 18.7398 16.9396 20.091 19.1901C21.0464 20.8117 22.1273 22.3558 23.3239 23.8085C22.8081 24.2001 22.3205 24.6276 21.8647 25.0877Z" fill="#E7E7E7"/>
<path d="M33.0552 14.229H32.0252C31.8484 12.2281 31.2977 10.2781 30.4017 8.48019C29.3022 6.25292 27.5048 4.44606 25.2833 3.33486H28.7853C28.9336 3.89863 29.264 4.3976 29.7252 4.75422C30.1863 5.11084 30.7524 5.30512 31.3353 5.30686C31.537 5.30653 31.738 5.28373 31.9346 5.23886C32.4465 5.12287 32.9125 4.85756 33.2736 4.47654C33.6347 4.09551 33.8745 3.6159 33.9628 3.09846C34.0511 2.58101 33.9838 2.04901 33.7696 1.56981C33.5553 1.09062 33.2036 0.685794 32.7591 0.406609C32.4046 0.183713 32.0023 0.0479831 31.5852 0.0105397C31.1681 -0.0269036 30.7481 0.0350054 30.3596 0.191194C29.9711 0.347383 29.6251 0.593406 29.3499 0.909106C29.0748 1.22481 28.8784 1.6012 28.7768 2.00744H19.6988V0.946359C19.6984 0.699999 19.6004 0.463837 19.4262 0.289635C19.252 0.115432 19.0158 0.0174001 18.7695 0.0170254H15.3227C15.0764 0.0174001 14.8402 0.115432 14.666 0.289635C14.4918 0.463837 14.3938 0.699999 14.3934 0.946359V2.04003H5.24032C5.09617 1.40104 4.72076 0.837963 4.18635 0.459171C3.65194 0.0803787 2.9963 -0.0873515 2.34564 -0.0117341C1.69498 0.0638833 1.09529 0.377503 0.66199 0.868759C0.228694 1.36001 -0.00757768 1.99418 -0.00134459 2.64919V2.65769C-0.000594029 3.36069 0.279098 4.03465 0.776323 4.53161C1.27355 5.02857 1.94766 5.3079 2.65066 5.30828C3.22916 5.30698 3.7914 5.11665 4.25173 4.76628C4.71207 4.41591 5.0453 3.9247 5.20065 3.36744H8.78482C6.56191 4.47859 4.76268 6.28528 3.66074 8.51277C2.76342 10.3108 2.21175 12.2614 2.03441 14.263H0.990322C0.743963 14.2634 0.507801 14.3614 0.333598 14.5356C0.159395 14.7098 0.0613634 14.946 0.0609887 15.1924V18.6419C0.0613634 18.8883 0.159395 19.1245 0.333598 19.2987C0.507801 19.4729 0.743963 19.5709 0.990322 19.5713H4.43282C4.67918 19.5709 4.91534 19.4729 5.08955 19.2987C5.26375 19.1245 5.36178 18.8883 5.36216 18.6419V15.1924C5.36178 14.946 5.26375 14.7098 5.08955 14.5356C4.91534 14.3614 4.67918 14.2634 4.43282 14.263H3.36891C3.54312 12.4724 4.0429 10.7287 4.84366 9.11769C5.63241 7.52181 6.82509 6.16014 8.30315 5.16803C10.1305 4.02302 12.2385 3.40483 14.3948 3.38161V4.39169C14.3952 4.63805 14.4932 4.87421 14.6674 5.04842C14.8416 5.22262 15.0778 5.32065 15.3242 5.32103H18.7695C19.0158 5.32065 19.252 5.22262 19.4262 5.04842C19.6004 4.87421 19.6984 4.63805 19.6988 4.39169V3.34761C21.8392 3.37222 23.9315 3.98535 25.7466 5.11986C27.2194 6.10502 28.4095 7.45769 29.199 9.04402C29.8334 10.3048 30.2797 11.6517 30.5236 13.0419C30.6086 13.5122 30.6652 13.9188 30.6893 14.229H29.607C29.3606 14.2294 29.1245 14.3274 28.9503 14.5016C28.7761 14.6758 28.678 14.912 28.6777 15.1584V18.6079C28.678 18.8543 28.7761 19.0905 28.9503 19.2647C29.1245 19.4389 29.3606 19.5369 29.607 19.5373H33.0537C33.3001 19.5369 33.5363 19.4389 33.7105 19.2647C33.8847 19.0905 33.9827 18.8543 33.9831 18.6079V15.1584C33.9827 14.912 33.8847 14.6758 33.7105 14.5016C33.5363 14.3274 33.3015 14.2294 33.0552 14.229ZM30.2218 1.94794C30.4096 1.65154 30.7068 1.44132 31.0488 1.36305C31.3908 1.28477 31.7499 1.34479 32.0479 1.53003C32.3457 1.71729 32.5569 2.01509 32.6353 2.35801C32.7137 2.70093 32.6527 3.06093 32.4658 3.35894C32.2781 3.65534 31.9808 3.86556 31.6388 3.94384C31.2968 4.02211 30.9377 3.9621 30.6397 3.77686C30.3427 3.58935 30.1319 3.29183 30.0536 2.94936C29.9753 2.6069 30.0358 2.24735 30.2218 1.94936V1.94794ZM3.97382 2.65628C3.97345 3.00671 3.83407 3.34268 3.58628 3.59048C3.33848 3.83827 3.00251 3.97765 2.65207 3.97803C2.30164 3.97765 1.96566 3.83827 1.71787 3.59048C1.47007 3.34268 1.3307 3.00671 1.33032 2.65628V2.64919C1.33032 2.29789 1.46988 1.96098 1.71828 1.71257C1.96669 1.46416 2.3036 1.32461 2.65491 1.32461C3.00621 1.32461 3.34312 1.46416 3.59153 1.71257C3.83993 1.96098 3.97949 2.29789 3.97949 2.64919L3.97382 2.65628ZM4.03049 15.589V18.241H1.38557V15.5904L4.03049 15.589ZM18.37 3.99644H15.7237V1.34444H18.3728L18.37 3.99644ZM32.6557 18.2099H30.0065V15.5579H32.6557V18.2099Z" fill="#E7E7E7"/>
<path d="M18.9425 22.2105C18.6041 21.8655 18.1772 21.6204 17.7086 21.5022V20.0855C17.7086 19.9093 17.6386 19.7403 17.514 19.6157C17.3894 19.4911 17.2204 19.4211 17.0441 19.4211C16.8679 19.4211 16.6989 19.4911 16.5743 19.6157C16.4497 19.7403 16.3797 19.9093 16.3797 20.0855V21.5022C15.7566 21.6623 15.213 22.0434 14.8501 22.5746C14.4871 23.1057 14.3296 23.7507 14.4069 24.3894C14.4842 25.028 14.791 25.6168 15.2702 26.0461C15.7494 26.4753 16.3683 26.7157 17.0116 26.7226H17.0441C17.5663 26.7228 18.0768 26.5689 18.5118 26.2801C18.9468 25.9914 19.2869 25.5807 19.4895 25.0995C19.6921 24.6182 19.7481 24.0879 19.6505 23.575C19.5529 23.0621 19.3062 22.5894 18.9411 22.2162L18.9425 22.2105ZM17.9692 25.0141C17.8145 25.1678 17.6242 25.281 17.4152 25.3436C17.2062 25.4062 16.985 25.4163 16.7712 25.373C16.5574 25.3296 16.3576 25.2342 16.1895 25.0951C16.0214 24.956 15.8902 24.7776 15.8075 24.5757C15.7249 24.3738 15.6933 24.1547 15.7156 23.9377C15.738 23.7206 15.8135 23.5125 15.9355 23.3317C16.0576 23.1508 16.2223 23.0029 16.4152 22.901C16.6081 22.7991 16.8232 22.7463 17.0413 22.7474C17.1438 22.7472 17.246 22.7586 17.3459 22.7814C17.5916 22.8377 17.8159 22.9636 17.9919 23.1441C18.237 23.3961 18.3723 23.735 18.368 24.0866C18.3638 24.4382 18.2204 24.7737 17.9692 25.0197V25.0141Z" fill="#E7E7E7"/>
<path d="M17.0468 18.0951C16.8761 18.0872 16.715 18.0139 16.597 17.8903C16.4789 17.7666 16.4131 17.6023 16.4131 17.4314C16.4131 17.2605 16.4789 17.0962 16.597 16.9726C16.715 16.849 16.8761 16.7756 17.0468 16.7677C17.223 16.7677 17.392 16.8377 17.5166 16.9623C17.6412 17.0869 17.7113 17.2559 17.7113 17.4321C17.7113 17.6083 17.6412 17.7773 17.5166 17.9019C17.392 18.0265 17.223 18.0951 17.0468 18.0951Z" fill="#E7E7E7"/>
</g>
<defs>
<clipPath id="clip0_754_19">
<rect width="34" height="34" fill="white"/>
</clipPath>
</defs>
</svg>
