<svg width="35" height="34" viewBox="0 0 35 34" fill="none" xmlns="http://www.w3.org/2000/svg">
<g clip-path="url(#clip0_754_30)">
<path d="M9.39978 13.1439H8.26611V14.2715H9.39978V13.1439Z" fill="#E7E7E7"/>
<path d="M15.0668 13.1439H13.9331V14.2715H15.0668V13.1439Z" fill="#E7E7E7"/>
<path d="M33.8465 19.3503L31.6318 19.0358C31.5267 18.7276 31.4026 18.4263 31.2601 18.1334L32.6003 16.3569C32.6815 16.2481 32.7208 16.114 32.7111 15.9788C32.7015 15.8437 32.6435 15.7164 32.5476 15.6202L30.1435 13.2289C30.0513 13.1374 29.9299 13.0808 29.8003 13.0688V7.64436C30.3305 7.2222 30.7587 6.68692 31.053 6.07807C31.3473 5.46922 31.5004 4.80237 31.5008 4.12678C31.506 3.27268 31.2646 2.43504 30.8054 1.71333C30.3462 0.991624 29.6884 0.416161 28.9102 0.0552792C28.8237 0.0154672 28.7286 -0.0021323 28.6335 0.00409186C28.5384 0.010316 28.4464 0.040165 28.3659 0.0909062C28.2854 0.141647 28.219 0.21166 28.1728 0.294534C28.1265 0.377409 28.1019 0.470498 28.1012 0.565279V3.7202L26.9619 4.09561L25.8225 3.7202V0.563863C25.8213 0.469322 25.7964 0.376579 25.7499 0.294084C25.7035 0.211588 25.637 0.141962 25.5566 0.0915481C25.4762 0.0411344 25.3844 0.0115355 25.2895 0.00544813C25.1947 -0.000639245 25.0998 0.0169784 25.0135 0.0566959C24.2355 0.417478 23.5779 0.99272 23.1187 1.71415C22.6595 2.43559 22.418 3.27292 22.4229 4.12678C22.4234 4.80237 22.5764 5.46922 22.8707 6.07807C23.1651 6.68692 23.5932 7.2222 24.1234 7.64436V11.4538H22.4329C22.2968 11.4543 22.1653 11.5034 22.0624 11.592C21.9595 11.6806 21.8918 11.8029 21.8718 11.9369L21.5057 14.4869L22.628 14.6469L22.9242 12.5786H25.3454L25.6416 14.6469C25.6575 14.7538 25.7037 14.8539 25.7749 14.9354C25.846 15.017 25.9392 15.0767 26.0432 15.1074C26.5156 15.2432 26.9717 15.4299 27.4034 15.6641C27.499 15.7157 27.6075 15.739 27.716 15.7312C27.8245 15.7235 27.9286 15.6849 28.0158 15.6202L29.6935 14.3693L31.4025 16.0693L30.1393 17.7367C30.0742 17.8234 30.0354 17.9269 30.0276 18.0349C30.0198 18.1428 30.0432 18.2507 30.0951 18.3459C30.3306 18.7753 30.5182 19.2289 30.6548 19.6988C30.6857 19.8023 30.7456 19.8949 30.8276 19.9657C30.9097 20.0365 31.0103 20.0825 31.1177 20.0983L33.197 20.3929V22.8013L31.1177 23.0959C31.0103 23.1117 30.9097 23.1577 30.8276 23.2285C30.7456 23.2993 30.6857 23.3919 30.6548 23.4954C30.5182 23.9653 30.3306 24.419 30.0951 24.8484C30.0432 24.9435 30.0198 25.0514 30.0276 25.1594C30.0354 25.2673 30.0742 25.3708 30.1393 25.4575L31.3968 27.1264L29.6878 28.8264L28.0115 27.5712C27.9243 27.5065 27.8203 27.4679 27.7117 27.4601C27.6032 27.4524 27.4947 27.4757 27.3991 27.5273C26.9674 27.7615 26.5113 27.9482 26.039 28.084C25.9349 28.1147 25.8418 28.1744 25.7706 28.2559C25.6995 28.3375 25.6532 28.4376 25.6374 28.5444L25.3425 30.6142H22.9997V28.2342C22.9994 27.6386 22.9135 27.0461 22.7448 26.4747C23.8242 26.7891 24.9773 26.7443 26.0288 26.347C27.0803 25.9498 27.9726 25.2219 28.57 24.2739C29.1674 23.326 29.4372 22.2099 29.3385 21.0954C29.2398 19.9809 28.7778 18.929 28.023 18.0996C27.2681 17.2702 26.2616 16.7087 25.1564 16.5005C24.0513 16.2923 22.9081 16.4488 21.9006 16.9462C20.8931 17.4435 20.0764 18.2546 19.5748 19.256C19.0732 20.2573 18.9141 21.3943 19.1216 22.4939L19.0817 22.4769L14.5001 20.655V19.788C15.2571 19.4029 15.9277 18.8689 16.4712 18.2184H17.8954C18.1187 18.2184 18.3398 18.1746 18.5461 18.0896C18.7524 18.0046 18.9399 17.88 19.0978 17.7229C19.2557 17.5659 19.381 17.3794 19.4664 17.1742C19.5519 16.969 19.5959 16.749 19.5959 16.5269V15.2958C19.9272 15.1806 20.2145 14.9663 20.4185 14.6822C20.6225 14.3981 20.7331 14.0582 20.7352 13.7091V12.0176C20.7331 11.6685 20.6225 11.3286 20.4185 11.0445C20.2145 10.7605 19.9272 10.5461 19.5959 10.4309V9.76228C19.5959 7.66931 18.76 5.66207 17.2722 4.18212C15.7844 2.70217 13.7665 1.87074 11.6624 1.87074C9.55825 1.87074 7.54033 2.70217 6.05251 4.18212C4.56468 5.66207 3.72883 7.66931 3.72883 9.76228V10.4295C3.39753 10.5447 3.11017 10.7591 2.90618 11.0431C2.70219 11.3272 2.59156 11.6671 2.58947 12.0162V13.7077C2.58946 13.9307 2.63378 14.1514 2.71986 14.3573C2.80594 14.5632 2.93209 14.7501 3.09105 14.9073C3.25002 15.0645 3.43866 15.1889 3.64612 15.2733C3.85359 15.3577 4.07579 15.4005 4.29994 15.3992H5.4393C5.4749 15.3992 5.51051 15.3992 5.54611 15.3907C5.72105 16.3244 6.10881 17.2057 6.67963 17.967C7.25044 18.7283 7.98911 19.3493 8.83887 19.7824V20.6494L4.25151 22.4769C3.09248 22.9338 2.09875 23.7275 1.39987 24.7545C0.700987 25.7815 0.329392 26.9941 0.33353 28.2342V33.4362C0.33353 33.5865 0.39355 33.7306 0.500386 33.8369C0.607222 33.9432 0.752123 34.0029 0.903212 34.0029H22.4329C22.584 34.0029 22.7289 33.9432 22.8357 33.8369C22.9426 33.7306 23.0026 33.5865 23.0026 33.4362V31.7461H25.8268C25.9629 31.7456 26.0943 31.6965 26.1973 31.6079C26.3002 31.5193 26.3678 31.397 26.3879 31.263L26.7041 29.0615C27.0139 28.957 27.3168 28.8335 27.6113 28.6918L29.3972 30.0249C29.5066 30.1056 29.6414 30.1448 29.7773 30.1351C29.9132 30.1255 30.0411 30.0678 30.1378 29.9724L32.5419 27.5811C32.6378 27.4849 32.6958 27.3576 32.7055 27.2225C32.7151 27.0873 32.6758 26.9532 32.5946 26.8444L31.2544 25.0679C31.3969 24.775 31.521 24.4737 31.6261 24.1655L33.8393 23.851C33.974 23.8311 34.097 23.7638 34.1861 23.6614C34.2752 23.559 34.3244 23.4283 34.325 23.2929V19.9084C34.3244 19.773 34.2752 19.6423 34.1861 19.5399C34.097 19.4375 33.974 19.3703 33.8393 19.3503H33.8465ZM27.6127 14.5095C27.5857 14.4968 27.5558 14.4883 27.5301 14.4755V7.50836H26.3964V11.9779V11.9369C26.3764 11.8029 26.3087 11.6806 26.2058 11.592C26.1029 11.5034 25.9714 11.4543 25.8353 11.4538H25.2656V7.36103C25.2654 7.27004 25.2432 7.18043 25.2008 7.0998C25.1584 7.01917 25.0971 6.94987 25.0221 6.89778C24.6008 6.60609 24.2513 6.22329 24 5.7781C23.7486 5.3329 23.6019 4.83686 23.5708 4.3272C23.5397 3.81754 23.625 3.30749 23.8204 2.83532C24.0157 2.36314 24.3161 1.9411 24.6988 1.60086V4.12678C24.6991 4.24509 24.7366 4.36035 24.8061 4.45639C24.8755 4.55242 24.9735 4.62442 25.0862 4.66228L26.7867 5.22895C26.9028 5.2671 27.0281 5.2671 27.1442 5.22895L28.8447 4.66228C28.9573 4.62442 29.0553 4.55242 29.1248 4.45639C29.1942 4.36035 29.2318 4.24509 29.232 4.12678V1.60228C29.615 1.94251 29.9156 2.36464 30.1111 2.83695C30.3066 3.30927 30.392 3.81951 30.3609 4.32936C30.3298 4.83921 30.183 5.33543 29.9315 5.78076C29.68 6.22609 29.3303 6.60895 28.9087 6.90061C28.8341 6.95243 28.7731 7.02127 28.7307 7.10138C28.6883 7.18148 28.6659 7.27052 28.6652 7.36103V13.7275L27.6127 14.5095ZM20.1656 21.5929C20.1594 20.7115 20.448 19.8532 20.9859 19.1529C21.5238 18.4525 22.2805 17.9499 23.137 17.7242C23.9935 17.4984 24.9011 17.5623 25.7171 17.9057C26.5331 18.2491 27.2111 18.8527 27.6446 19.6213C28.078 20.39 28.2423 21.2802 28.1115 22.1519C27.9807 23.0236 27.5623 23.8273 26.9221 24.4366C26.2819 25.0458 25.4562 25.4261 24.575 25.5176C23.6937 25.6091 22.8069 25.4065 22.0541 24.9419C21.6623 24.3175 21.1611 23.7681 20.5743 23.3198C20.3049 22.7836 20.1649 22.1923 20.1656 21.5929ZM17.8982 17.0836H17.2103C17.4867 16.5483 17.6825 15.9755 17.7914 15.3836C17.827 15.3836 17.8626 15.3921 17.8982 15.3921H18.4679V16.5254C18.4675 16.6752 18.4075 16.8188 18.3011 16.9247C18.1946 17.0307 18.0502 17.0903 17.8997 17.0907L17.8982 17.0836ZM16.7589 10.8829C16.4951 10.8823 16.2351 10.8209 15.9991 10.7037C15.7631 10.5865 15.5577 10.4165 15.3988 10.2071L14.379 8.8542C14.3334 8.79394 14.2761 8.74336 14.2106 8.70541C14.145 8.66746 14.0725 8.64291 13.9973 8.6332C13.9217 8.6236 13.845 8.62918 13.7716 8.64962C13.6982 8.67006 13.6297 8.70494 13.5701 8.7522L11.6773 10.2709C11.1754 10.6701 10.5525 10.8888 9.90987 10.8914H6.56727V10.3247C6.56727 9.65849 6.69918 8.99881 6.95549 8.38331C7.21179 7.76782 7.58746 7.20856 8.06104 6.73748C8.53463 6.26641 9.09686 5.89272 9.71563 5.63778C10.3344 5.38283 10.9976 5.25161 11.6673 5.25161C12.3371 5.25161 13.0003 5.38283 13.6191 5.63778C14.2378 5.89272 14.8 6.26641 15.2736 6.73748C15.7472 7.20856 16.1229 7.76782 16.3792 8.38331C16.6355 8.99881 16.7674 9.65849 16.7674 10.3247L16.7589 10.8829ZM19.5916 13.7006C19.5916 13.8509 19.5316 13.995 19.4247 14.1013C19.3179 14.2076 19.173 14.2673 19.0219 14.2673H17.8826V11.4538H19.0219C19.173 11.4538 19.3179 11.5135 19.4247 11.6198C19.5316 11.726 19.5916 11.8702 19.5916 12.0204V13.7006ZM11.6659 3.00336C13.469 3.00524 15.1976 3.71854 16.4726 4.98673C17.7475 6.25493 18.4646 7.97444 18.4665 9.76795V10.3346H17.8968C17.9093 9.51253 17.7573 8.69618 17.4497 7.93306C17.142 7.16995 16.6849 6.47531 16.1049 5.88956C15.5249 5.30381 14.8335 4.83866 14.0711 4.52115C13.3086 4.20365 12.4903 4.04014 11.6638 4.04014C10.8372 4.04014 10.0189 4.20365 9.25648 4.52115C8.49405 4.83866 7.8027 5.30381 7.22267 5.88956C6.64264 6.47531 6.18552 7.16995 5.87788 7.93306C5.57025 8.69618 5.41826 9.51253 5.43075 10.3346H4.86107V9.76795C4.86296 7.97371 5.58064 6.25356 6.85651 4.98523C8.13238 3.71691 9.86213 3.00411 11.6659 3.00336ZM4.29994 14.2715C4.22512 14.2715 4.15105 14.2569 4.08193 14.2284C4.01281 14.1999 3.95001 14.1582 3.89711 14.1056C3.84421 14.0529 3.80225 13.9905 3.77362 13.9217C3.74499 13.853 3.73026 13.7793 3.73026 13.7049V12.0176C3.73026 11.9432 3.74499 11.8695 3.77362 11.8008C3.80225 11.732 3.84421 11.6695 3.89711 11.6169C3.95001 11.5643 4.01281 11.5226 4.08193 11.4941C4.15105 11.4656 4.22512 11.4509 4.29994 11.4509H5.4393V14.2687L4.29994 14.2715ZM6.56727 14.2715V12.0176H9.90987C10.8103 12.0161 11.6837 11.7115 12.388 11.1534L13.8336 10.0031L14.5001 10.8914C14.7642 11.2417 15.1065 11.5264 15.4999 11.723C15.8933 11.9197 16.3271 12.0229 16.7674 12.0247V14.28C16.768 15.2838 16.4675 16.2649 15.9043 17.0978H11.6659V18.2311H14.8604C14.1121 18.8334 13.2077 19.2124 12.2517 19.3244C11.2958 19.4364 10.3276 19.2767 9.45912 18.8638C8.59068 18.4509 7.8576 17.8018 7.34479 16.9915C6.83198 16.1813 6.56042 15.2431 6.56157 14.2857L6.56727 14.2715ZM11.6673 20.4723C12.2426 20.4712 12.8149 20.3906 13.3678 20.2329V21.0361C13.3744 21.2623 13.3353 21.4874 13.2529 21.6983C13.1704 21.9092 13.0462 22.1014 12.8878 22.2637C12.7293 22.426 12.5397 22.555 12.3302 22.6431C12.1206 22.7312 11.8955 22.7766 11.6681 22.7766C11.4406 22.7766 11.2155 22.7312 11.0059 22.6431C10.7964 22.555 10.6068 22.426 10.4483 22.2637C10.2899 22.1014 10.1657 21.9092 10.0832 21.6983C10.0008 21.4874 9.96168 21.2623 9.96826 21.0361V20.2329C10.5203 20.3903 11.0916 20.4709 11.6659 20.4723H11.6673ZM21.8675 32.8724H18.4665V26.673H17.3271V32.8738H6.00043V26.673H4.86107V32.8738H1.47289V28.2342C1.46955 27.2195 1.77364 26.2274 2.34549 25.3872C2.91735 24.5469 3.73045 23.8976 4.67877 23.5238L8.9642 21.8238C9.13307 22.4079 9.4884 22.9216 9.97654 23.2872C10.4647 23.6528 11.0591 23.8505 11.6702 23.8505C12.2812 23.8505 12.8757 23.6528 13.3638 23.2872C13.852 22.9216 14.2073 22.4079 14.3762 21.8238L18.6616 23.5238C19.6099 23.8976 20.423 24.5469 20.9949 25.3872C21.5667 26.2274 21.8708 27.2195 21.8675 28.2342V32.8724Z" fill="#E7E7E7"/>
<path d="M24.7001 13.7076H23.5664V14.8353H24.7001V13.7076Z" fill="#E7E7E7"/>
<path d="M24.7001 28.3631H23.5664V29.4908H24.7001V28.3631Z" fill="#E7E7E7"/>
<path d="M29.3417 25.9833L28.54 26.7806L29.3417 27.578L30.1433 26.7806L29.3417 25.9833Z" fill="#E7E7E7"/>
<path d="M32.0663 21.0361H30.9326V22.1637H32.0663V21.0361Z" fill="#E7E7E7"/>
<path d="M29.3431 15.6203L28.5415 16.4177L29.3431 17.2151L30.1447 16.4177L29.3431 15.6203Z" fill="#E7E7E7"/>
</g>
<defs>
<clipPath id="clip0_754_30">
<rect width="34" height="34" fill="white" transform="translate(0.333496)"/>
</clipPath>
</defs>
</svg>
