<svg width="35" height="34" viewBox="0 0 35 34" fill="none" xmlns="http://www.w3.org/2000/svg">
<g clip-path="url(#clip0_754_52)">
<path d="M17.6661 18.7672C16.7679 18.7672 15.89 19.0336 15.1432 19.5326C14.3964 20.0315 13.8144 20.7408 13.4707 21.5705C13.127 22.4003 13.037 23.3134 13.2123 24.1942C13.3875 25.0751 13.82 25.8843 14.4551 26.5194C15.0901 27.1544 15.8993 27.5869 16.7802 27.7621C17.6611 27.9374 18.5741 27.8474 19.4039 27.5037C20.2337 27.16 20.9429 26.578 21.4419 25.8312C21.9408 25.0844 22.2072 24.2065 22.2072 23.3083C22.2057 22.1044 21.7268 20.9502 20.8755 20.0989C20.0242 19.2476 18.87 18.7687 17.6661 18.7672ZM17.6661 26.4488C17.0452 26.4488 16.4383 26.2647 15.9221 25.9198C15.4059 25.5749 15.0035 25.0846 14.7659 24.511C14.5283 23.9374 14.4662 23.3062 14.5873 22.6973C14.7084 22.0884 15.0074 21.5291 15.4464 21.0901C15.8854 20.651 16.4448 20.3521 17.0537 20.231C17.6626 20.1098 18.2938 20.172 18.8674 20.4096C19.441 20.6472 19.9312 21.0495 20.2761 21.5657C20.6211 22.082 20.8052 22.6889 20.8052 23.3097C20.8041 24.1419 20.473 24.9397 19.8845 25.5282C19.2961 26.1166 18.4983 26.4477 17.6661 26.4488Z" fill="#E7E7E7" stroke="white" stroke-width="0.25"/>
<path d="M29.7611 10.3692C30.0454 9.47747 30.153 8.53882 30.0779 7.60586C29.8929 5.5859 28.9638 3.70681 27.4708 2.3336C25.9779 0.9604 24.0279 0.191133 21.9996 0.175238H21.9365C20.3064 0.168637 18.7114 0.647907 17.3549 1.55187C15.9985 2.45584 14.9422 3.7435 14.3208 5.25049C13.5582 4.64564 12.6642 4.22843 11.7108 4.0325C10.7574 3.83658 9.77129 3.86742 8.83199 4.12253C7.8927 4.37765 7.02649 4.84991 6.3032 5.50123C5.57992 6.15255 5.0198 6.96472 4.66799 7.87224C4.31473 8.83886 4.22379 9.88179 4.40442 10.895C3.10784 11.627 2.07803 12.7529 1.46421 14.1094C0.850394 15.466 0.684459 16.9827 0.990451 18.4399C1.29644 19.8971 2.05847 21.2189 3.1661 22.214C4.27373 23.2091 5.66943 23.8256 7.15094 23.9743V25.1828L9.60445 25.5922C9.78232 26.2196 10.0336 26.8238 10.3531 27.3923L8.90625 29.4196L11.556 32.0694L13.5819 30.6226C14.1505 30.9419 14.7547 31.1932 15.3821 31.3712L15.7929 33.8233H19.5405L19.9498 31.3698C20.5777 31.1918 21.1823 30.9405 21.7514 30.6212L23.7773 32.068L26.4271 29.4182L24.9802 27.3909C25.2997 26.8224 25.551 26.2182 25.7289 25.5908L28.1824 25.1814V23.9729C29.771 23.8112 31.2568 23.1119 32.394 21.9908C33.5311 20.8698 34.2514 19.3941 34.4357 17.8079C34.62 16.2217 34.2572 14.6202 33.4074 13.2682C32.5576 11.9163 31.2717 10.895 29.7625 10.3734L29.7611 10.3692ZM24.5736 24.3626L24.4713 24.8253C24.2964 25.6154 23.9836 26.3686 23.5474 27.0503L23.2936 27.4498L24.5919 29.2724L23.6217 30.2426L21.7991 28.9444L21.3995 29.1995C20.7177 29.6355 19.9646 29.9482 19.1745 30.1234L18.7119 30.2258L18.353 32.4213H16.9804L16.6131 30.2202L16.1504 30.1178C15.3605 29.9435 14.6074 29.6317 13.9254 29.1967L13.5259 28.9416L11.7033 30.2398L10.7331 29.2696L12.0313 27.447L11.7776 27.0503C11.3413 26.3686 11.0286 25.6154 10.8536 24.8253L10.7513 24.3626L8.55295 23.9953V22.6213L10.7541 22.254L10.8564 21.7913C11.0309 21.0015 11.3427 20.2484 11.7776 19.5664L12.0313 19.1668L10.7331 17.3442L11.7033 16.374L13.5259 17.6722L13.9254 17.4171C14.6078 16.9813 15.3614 16.6686 16.1518 16.4932L16.6131 16.3908L16.9804 14.1953H18.353L18.7203 16.3964L19.1815 16.4988C19.972 16.6742 20.7255 16.9869 21.4079 17.4227L21.8075 17.6779L23.6301 16.3796L24.6003 17.3498L23.302 19.1724L23.5558 19.572C23.9918 20.2542 24.3046 21.0078 24.4797 21.7983L24.5821 22.261L26.7832 22.6283V24.0023L24.5736 24.3626ZM28.1768 22.5596V21.438L25.7233 21.0286C25.5455 20.4008 25.2942 19.796 24.9746 19.2271L26.4215 17.2012L23.7717 14.5514L21.7458 15.9983C21.1771 15.6792 20.5729 15.428 19.9456 15.2496L19.5405 12.7933H15.7929L15.3835 15.2468C14.7563 15.4252 14.1521 15.6764 13.5833 15.9955L11.556 14.5486L8.90625 17.1984L10.3531 19.2243C10.0335 19.7932 9.78225 20.398 9.60445 21.0258L7.15094 21.4352V22.5568C5.94528 22.4029 4.82225 21.8615 3.95097 21.014C3.07969 20.1665 2.50732 19.0589 2.32005 17.858C2.13279 16.6571 2.34076 15.4278 2.91265 14.3553C3.48455 13.2828 4.38941 12.4251 5.49097 11.9114L6.02373 11.6619L5.87232 11.094C5.65041 10.2093 5.6815 9.27997 5.96204 8.41201C6.28553 7.58491 6.8281 6.86148 7.53153 6.31933C8.23497 5.77718 9.07273 5.43677 9.95495 5.33461C10.731 5.25536 11.5147 5.36492 12.2392 5.65396C12.9638 5.943 13.6077 6.40294 14.1161 6.99459L15.0246 8.06712L15.3344 6.69596C15.6973 5.22375 16.5467 3.91723 17.745 2.98816C18.9433 2.05909 20.4203 1.56193 21.9365 1.57724H21.9898C23.6656 1.58554 25.2786 2.21666 26.5151 3.34794C27.7515 4.47923 28.5232 6.02984 28.6801 7.69839C28.7642 8.67518 28.5957 9.65718 28.1908 10.5501L27.8347 11.3394L28.6759 11.5245C29.9659 11.8089 31.114 12.5395 31.918 13.5876C32.722 14.6357 33.1302 15.9339 33.0707 17.2535C33.0112 18.5731 32.4878 19.8293 31.5928 20.8008C30.6977 21.7723 29.4885 22.3966 28.1782 22.5638L28.1768 22.5596Z" fill="#E7E7E7" stroke="white" stroke-width="0.25"/>
</g>
<defs>
<clipPath id="clip0_754_52">
<rect width="34" height="34" fill="white" transform="translate(0.666504)"/>
</clipPath>
</defs>
</svg>
