<svg width="34" height="34" viewBox="0 0 34 34" fill="none" xmlns="http://www.w3.org/2000/svg">
<g clip-path="url(#clip0_917_220)">
<path d="M6.37207 10.5651H27.6289V12.0225H6.37207V10.5651Z" fill="#E7E7E7" stroke="#E7E7E7" stroke-width="0.2"/>
<path d="M3.71427 24.3957C3.24895 24.3957 2.78818 24.3204 2.35828 24.174C1.92838 24.0277 1.53776 23.8132 1.20873 23.5428C0.544217 22.9967 0.170898 22.256 0.170898 21.4837V13.4771C0.170898 12.7048 0.544217 11.9641 1.20873 11.418C1.87324 10.8719 2.77451 10.5651 3.71427 10.5651C4.65403 10.5651 5.5553 10.8719 6.21982 11.418C6.88433 11.9641 7.25765 12.7048 7.25765 13.4771V21.4837C7.25765 21.8661 7.16599 22.2447 6.98792 22.598C6.80985 22.9513 6.54885 23.2724 6.21982 23.5428C5.89078 23.8132 5.50016 24.0277 5.07026 24.174C4.64036 24.3204 4.17959 24.3957 3.71427 24.3957ZM3.71427 12.0211C3.24439 12.0211 2.79376 12.1745 2.4615 12.4475C2.12924 12.7206 1.94259 13.0909 1.94259 13.4771V21.4837C1.94259 21.6749 1.98841 21.8642 2.07745 22.0409C2.16648 22.2175 2.29698 22.378 2.4615 22.5132C2.62602 22.6484 2.82133 22.7557 3.03628 22.8288C3.25123 22.902 3.48161 22.9397 3.71427 22.9397C3.94693 22.9397 4.17732 22.902 4.39227 22.8288C4.60722 22.7557 4.80253 22.6484 4.96704 22.5132C5.13156 22.378 5.26206 22.2175 5.3511 22.0409C5.44013 21.8642 5.48596 21.6749 5.48596 21.4837V13.4771C5.48551 13.0912 5.29865 12.7212 4.96644 12.4484C4.63423 12.1757 4.18386 12.0225 3.71427 12.0225V12.0211Z" fill="#E7E7E7" stroke="#E7E7E7" stroke-width="0.2"/>
<path d="M30.2875 24.3957C29.3478 24.3957 28.4465 24.0889 27.782 23.5428C27.1175 22.9967 26.7441 22.256 26.7441 21.4837V13.4771C26.7441 13.0947 26.8358 12.716 27.0139 12.3627C27.192 12.0094 27.453 11.6884 27.782 11.418C28.111 11.1476 28.5016 10.9331 28.9315 10.7867C29.3614 10.6404 29.8222 10.5651 30.2875 10.5651C30.7529 10.5651 31.2136 10.6404 31.6435 10.7867C32.0734 10.9331 32.4641 11.1476 32.7931 11.418C33.1221 11.6884 33.3831 12.0094 33.5612 12.3627C33.7393 12.716 33.8309 13.0947 33.8309 13.4771V21.4837C33.8309 22.256 33.4576 22.9967 32.7931 23.5428C32.1286 24.0889 31.2273 24.3957 30.2875 24.3957ZM30.2875 12.0211C29.8177 12.0211 29.367 12.1745 29.0348 12.4475C28.7025 12.7206 28.5159 13.0909 28.5159 13.4771V21.4837C28.5159 21.8698 28.7025 22.2402 29.0348 22.5132C29.367 22.7863 29.8177 22.9397 30.2875 22.9397C30.7574 22.9397 31.2081 22.7863 31.5403 22.5132C31.8726 22.2402 32.0592 21.8698 32.0592 21.4837V13.4771C32.0588 13.0912 31.8719 12.7212 31.5397 12.4484C31.2075 12.1757 30.7571 12.0225 30.2875 12.0225V12.0211Z" fill="#E7E7E7" stroke="#E7E7E7" stroke-width="0.2"/>
<path d="M21.4295 33.8667C20.4898 33.8667 19.5885 33.5599 18.924 33.0138C18.2595 32.4677 17.8862 31.727 17.8862 30.9547V27.3091H16.1145V30.9491C16.1145 31.7214 15.7412 32.4621 15.0767 33.0082C14.4121 33.5543 13.5109 33.8611 12.5711 33.8611C11.6314 33.8611 10.7301 33.5543 10.0656 33.0082C9.40106 32.4621 9.02774 31.7214 9.02774 30.9491V27.3091H8.13507C7.43025 27.3091 6.7543 27.079 6.25592 26.6694C5.75754 26.2598 5.47754 25.7043 5.47754 25.1251V11.2945C5.47754 8.78466 6.69074 6.37763 8.85024 4.60291C11.0097 2.8282 13.9387 1.83118 16.9927 1.83118C20.0467 1.83118 22.9756 2.8282 25.1351 4.60291C27.2946 6.37763 28.5078 8.78466 28.5078 11.2945V25.1251C28.5078 25.7043 28.2278 26.2598 27.7294 26.6694C27.231 27.079 26.5551 27.3091 25.8502 27.3091H24.9644V30.9491C24.9662 31.7212 24.5949 32.4622 23.932 33.0093C23.2691 33.5564 22.369 33.8648 21.4295 33.8667ZM14.3428 25.8587H19.6579V30.9547C19.6579 31.3408 19.8445 31.7112 20.1768 31.9842C20.509 32.2573 20.9597 32.4107 21.4295 32.4107C21.8994 32.4107 22.3501 32.2573 22.6823 31.9842C23.0146 31.7112 23.2012 31.3408 23.2012 30.9547V25.8531H25.8588C25.9751 25.8531 26.0903 25.8343 26.1978 25.7977C26.3052 25.7611 26.4029 25.7075 26.4852 25.6399C26.5674 25.5723 26.6327 25.492 26.6772 25.4037C26.7217 25.3154 26.7446 25.2207 26.7446 25.1251V11.2945C26.7107 9.18917 25.6692 7.17953 23.8457 5.7006C22.0221 4.22167 19.5632 3.39246 17.0012 3.39246C14.4392 3.39246 11.9803 4.22167 10.1567 5.7006C8.33313 7.17953 7.29167 9.18917 7.25776 11.2945V25.1251C7.25776 25.3182 7.3511 25.5033 7.51722 25.6399C7.68335 25.7764 7.90867 25.8531 8.14361 25.8531H10.8011V30.9491C10.8011 31.1403 10.847 31.3296 10.936 31.5063C11.025 31.6829 11.1555 31.8434 11.3201 31.9786C11.4846 32.1138 11.6799 32.2211 11.8948 32.2943C12.1098 32.3674 12.3402 32.4051 12.5728 32.4051C12.8055 32.4051 13.0359 32.3674 13.2508 32.2943C13.4658 32.2211 13.6611 32.1138 13.8256 31.9786C13.9901 31.8434 14.1206 31.6829 14.2096 31.5063C14.2987 31.3296 14.3445 31.1403 14.3445 30.9491L14.3428 25.8587Z" fill="#E7E7E7" stroke="#E7E7E7" stroke-width="0.2"/>
<path d="M13.4582 6.92651H11.6865V8.38252H13.4582V6.92651Z" fill="#E7E7E7" stroke="#E7E7E7" stroke-width="0.2"/>
<path d="M22.3156 6.92651H20.5439V8.38252H22.3156V6.92651Z" fill="#E7E7E7" stroke="#E7E7E7" stroke-width="0.2"/>
<path d="M8.74219 1.0281L10.2118 0.215942L12.6662 3.21631L11.1966 4.02848L8.74219 1.0281Z" fill="#E7E7E7" stroke="#E7E7E7" stroke-width="0.2"/>
<path d="M21.3164 3.19251L23.7674 0.194946L25.2387 1.00711L22.7877 4.00467L21.3164 3.19251Z" fill="#E7E7E7" stroke="#E7E7E7" stroke-width="0.2"/>
</g>
<defs>
<clipPath id="clip0_917_220">
<rect width="34" height="34" fill="white"/>
</clipPath>
</defs>
</svg>
